<svg width="667" height="392" viewBox="0 0 667 392" fill="none" xmlns="http://www.w3.org/2000/svg">
<path d="M129.196 367.138C125.374 367.338 121.986 367.126 119.03 366.502C116.136 365.809 113.616 364.804 111.468 363.488C109.321 362.172 107.521 360.675 106.069 358.997C104.682 357.316 103.581 355.523 102.767 353.617L108.48 351.077C109.74 354.064 112.051 356.638 115.412 358.8C118.769 360.897 122.78 361.824 127.443 361.579C133.402 361.267 137.974 359.891 141.159 357.451C144.34 354.946 145.832 351.815 145.635 348.058C145.445 344.431 143.772 341.628 140.615 339.65C137.456 337.608 133.415 336.098 128.492 335.122L121.502 333.735C118.482 333.114 115.639 332.158 112.974 330.869C110.37 329.512 108.231 327.74 106.557 325.555C104.884 323.369 103.961 320.625 103.788 317.321C103.469 311.233 105.164 306.403 108.874 302.831C112.58 299.194 118.158 297.181 125.607 296.79C130.076 296.556 133.971 297.131 137.291 298.516C140.607 299.836 143.297 301.579 145.359 303.744C147.482 305.841 148.927 308.006 149.693 310.239L144.078 312.774C142.467 309.287 139.99 306.656 136.65 304.882C133.371 303.041 129.464 302.239 124.93 302.477C120.137 302.728 116.377 304.094 113.649 306.575C110.986 309.053 109.758 312.267 109.965 316.218C110.152 319.781 111.394 322.411 113.691 324.109C115.985 325.743 118.937 326.92 122.547 327.64L129.532 328.93C136.482 330.189 141.865 332.505 145.679 335.878C149.554 339.182 151.597 342.842 151.807 346.858C151.987 350.291 151.279 353.51 149.683 356.517C148.084 359.458 145.581 361.895 142.175 363.827C138.769 365.76 134.443 366.863 129.196 367.138ZM209.406 361.765L206.137 299.39L183.985 300.551L183.689 294.916L234.212 292.268L234.507 297.903L212.355 299.064L215.624 361.439L209.406 361.765ZM301.208 358.513C296.286 358.771 291.825 357.933 287.827 355.999C283.89 353.997 280.72 351.143 278.318 347.437C275.98 343.728 274.682 339.411 274.424 334.489L272.107 290.282L278.325 289.956L280.642 334.163C280.842 337.984 281.83 341.343 283.606 344.237C285.446 347.128 287.867 349.34 290.87 350.871C293.938 352.399 297.351 353.064 301.107 352.868C304.929 352.667 308.253 351.649 311.079 349.812C313.971 347.972 316.148 345.519 317.611 342.455C319.139 339.387 319.803 335.943 319.602 332.121L317.286 287.914L323.504 287.588L325.821 331.795C326.079 336.718 325.207 341.148 323.205 345.085C321.203 349.022 318.284 352.195 314.448 354.604C310.674 356.945 306.261 358.248 301.208 358.513ZM373.702 353.155L370.138 285.144L390.444 284.08C396.598 283.757 402.115 284.93 406.996 287.597C411.874 290.199 415.774 293.989 418.698 298.967C421.687 303.941 423.356 309.764 423.706 316.436C424.052 323.042 422.999 328.975 420.547 334.235C418.159 339.491 414.678 343.701 410.102 346.863C405.526 350.026 400.162 351.768 394.008 352.091L373.702 353.155ZM379.625 347.194L393.713 346.456C397.211 346.272 400.445 345.388 403.414 343.804C406.38 342.154 408.961 339.973 411.157 337.26C413.35 334.482 415.004 331.343 416.12 327.842C417.235 324.341 417.691 320.648 417.487 316.761C417.284 312.875 416.444 309.249 414.969 305.884C413.494 302.519 411.522 299.603 409.055 297.134C406.584 294.6 403.789 292.701 400.67 291.436C397.547 290.105 394.237 289.532 390.74 289.715L376.652 290.453L379.625 347.194ZM468.2 348.202L464.636 280.192L470.854 279.866L474.418 347.877L468.2 348.202ZM550.134 345.078C543.721 345.414 537.943 344.223 532.8 341.505C527.721 338.783 523.617 334.841 520.489 329.679C517.425 324.514 515.714 318.498 515.354 311.632C514.991 304.702 516.064 298.54 518.574 293.148C521.081 287.691 524.685 283.345 529.387 280.111C534.154 276.873 539.743 275.086 546.156 274.75C552.568 274.414 558.315 275.639 563.398 278.426C568.477 281.147 572.515 285.092 575.514 290.261C578.574 295.362 580.284 301.345 580.644 308.211C581.004 315.077 579.93 321.238 577.424 326.695C574.981 332.149 571.41 336.493 566.708 339.727C562.006 342.962 556.481 344.745 550.134 345.078ZM549.838 339.442C554.955 339.174 559.391 337.675 563.145 334.946C566.963 332.212 569.859 328.586 571.83 324.066C573.863 319.478 574.728 314.301 574.426 308.537C574.124 302.772 572.724 297.747 570.226 293.461C567.725 289.111 564.432 285.776 560.349 283.457C556.265 281.138 551.633 280.114 546.451 280.386C541.334 280.654 536.834 282.156 532.95 284.893C529.132 287.626 526.206 291.286 524.173 295.875C522.137 300.398 521.27 305.542 521.572 311.307C521.874 317.071 523.276 322.129 525.777 326.479C528.275 330.765 531.598 334.066 535.746 336.381C539.959 338.694 544.657 339.714 549.838 339.442Z" fill="#4A90E2"/>
<path d="M114.872 256.072C101.599 254.089 90.2735 248.098 80.8955 238.099C73.6884 229.772 67.7765 218.475 63.1599 204.208C60.8772 196.143 59.5258 188.104 59.1058 180.091C58.2931 164.583 60.9833 149.189 67.1764 133.91C69.5012 128.58 71.7281 124.222 73.8572 120.837C75.9824 117.377 78.5938 113.967 81.6913 110.605C85.6912 106.006 89.6343 102.451 93.5205 99.9406C97.4067 97.4305 102.062 95.4008 107.487 93.8517C110.494 93.0245 113.482 92.5331 116.449 92.3775C120.679 92.1559 124.869 92.6059 129.02 93.7276C137.47 95.9633 144.288 100.405 149.472 107.053C153.603 112.044 156.388 116.921 157.828 121.681C158.64 124.392 159.276 127.297 159.736 130.398C160.266 133.421 160.574 135.748 160.66 137.381C160.691 137.974 160.683 138.533 160.636 139.056C160.189 144.734 157.394 148.192 152.251 149.428C151.22 149.631 149.629 149.789 147.477 149.902L145.14 150.024C141.801 150.199 138.458 150.3 135.111 150.327C131.835 150.275 129.595 150.132 128.392 149.898C125.229 149.17 122.941 146.686 121.529 142.445C120.557 139.52 119.71 137.555 118.988 136.551C118.266 135.548 117.348 135.075 116.235 135.133L115.678 135.162C112.043 135.353 108.341 139.974 104.575 149.025C100.551 157.421 98.8322 167.22 99.4193 178.424C100.01 189.703 102.697 199.085 107.479 206.573C108.537 208.303 109.927 209.978 111.649 211.599C113.445 213.217 114.985 214.215 116.27 214.594C117.254 214.914 118.228 215.049 119.193 214.999C120.454 214.933 121.7 214.57 122.93 213.91C125.024 212.684 126.311 210.98 126.792 208.797C126.85 208.496 126.872 208.198 126.856 207.901C126.821 207.233 126.566 206.614 126.089 206.044C125.309 205.341 123.93 204.594 121.954 203.805C119.604 202.961 117.88 202.01 116.783 200.951C115.756 199.815 115.118 198.286 114.868 196.364C114.615 194.369 114.437 192.406 114.336 190.477C114.231 188.474 114.148 186.172 114.086 183.571C113.942 179.412 113.926 176.25 114.035 174.087C114.141 171.849 114.392 170.236 114.786 169.249C115.177 168.186 115.8 167.298 116.656 166.584C117.499 165.647 118.839 164.944 120.674 164.476C122.506 163.933 124.609 163.6 126.983 163.476C129.354 163.277 131.096 163.148 132.209 163.09C135.622 162.911 139.855 162.764 144.908 162.648C148.325 162.543 151.038 162.475 153.045 162.445C155.126 162.41 156.725 162.4 157.842 162.416C158.959 162.432 159.783 162.538 160.314 162.733C160.916 162.85 161.445 163.009 161.902 163.208C167.376 165.451 170.436 172.731 171.082 185.048L171.163 186.606C171.708 196.994 170.938 205.739 168.855 212.842C166.076 223.702 161.306 232.769 154.545 240.043C147.065 247.801 138.74 252.924 129.57 255.414C127.293 255.979 125.004 256.323 122.704 256.443C120.107 256.579 117.497 256.456 114.872 256.072ZM205.564 248.864C201.171 248.797 197.986 248.368 196.01 247.579C194.105 246.712 192.795 245.144 192.081 242.874C191.753 242.296 190.33 220.831 187.813 178.479C186.817 160.898 185.95 145.765 185.211 133.081C184.546 120.393 184.19 113.604 184.143 112.713C184.14 108.398 185.209 104.659 187.35 101.496C188.326 100.255 190.184 98.7809 192.922 97.075C195.734 95.3651 198.634 93.9111 201.621 92.7129C204.894 91.2765 210.352 90.358 217.994 89.9575C220.665 89.8175 223.6 89.7381 226.799 89.7193C231.258 89.6344 234.57 89.6468 236.733 89.7567C238.897 89.8665 241.22 90.1911 243.704 90.7306C254.665 92.6115 264.636 98.3016 273.616 107.801C276.681 110.914 278.978 113.584 280.508 115.81C282.035 117.962 283.481 120.714 284.847 124.065C287.138 129.45 288.43 134.926 288.721 140.491C289.324 151.992 285.588 163.757 277.513 175.787C275.58 178.641 274.418 180.599 274.027 181.662C273.632 182.649 273.454 183.514 273.493 184.256C273.52 184.776 273.661 185.326 273.915 185.908C274.422 187.072 275.89 189.525 278.318 193.267C280.816 196.93 283.865 201.16 287.465 205.957C290.74 210.249 292.917 213.446 293.994 215.547C295.146 217.645 295.772 219.658 295.873 221.587C295.994 223.887 295.536 225.809 294.501 227.351C293.462 228.819 291.331 230.753 288.109 233.154C280.012 239.085 273.849 242.16 269.62 242.382C269.026 242.413 268.468 242.405 267.945 242.358C266.449 242.214 264.801 241.295 263.001 239.604C261.272 237.835 258.925 234.944 255.962 230.933C246.811 218.169 241.398 211.421 239.723 210.691C238.649 210.077 237.556 209.8 236.443 209.858C235.998 209.882 235.519 209.981 235.008 210.157C233.399 210.687 232.19 211.755 231.381 213.36C231.182 213.817 231.031 214.494 230.93 215.393C230.828 216.291 230.753 217.708 230.706 219.645C230.729 221.504 230.795 224.179 230.903 227.671L230.933 228.227C231.053 231.941 231.087 234.729 231.036 236.592C231.055 238.377 230.975 239.683 230.795 240.511C230.686 241.26 230.465 242.016 230.133 242.778C229.339 244.679 228.072 246.048 226.33 246.883C224.658 247.64 221.858 248.159 217.93 248.439L211.586 248.772C209.285 248.892 207.278 248.923 205.564 248.864ZM235.417 162.592C237.709 160.909 239.873 158.898 241.908 156.56C243.94 154.147 245.455 151.835 246.456 149.625C247.19 148.024 247.612 146.849 247.722 146.099C247.831 145.349 247.863 144.529 247.816 143.639L247.746 142.303C247.376 138.082 245.084 134.816 240.871 132.508C237.732 130.812 234.864 130.032 232.267 130.168C229.595 130.308 227.791 131.37 226.853 133.354C226.58 133.815 226.392 134.494 226.29 135.392C226.259 136.212 226.284 137.401 226.366 138.96C226.444 140.444 226.523 141.965 226.605 143.523L226.879 148.754C227.039 151.796 227.204 154.243 227.375 156.094C227.547 157.945 227.695 159.351 227.82 160.311C227.944 161.272 228.056 161.973 228.153 162.414C228.321 162.778 228.524 163.102 228.762 163.387C229.539 164.016 230.41 164.305 231.374 164.254C232.562 164.192 233.909 163.638 235.417 162.592ZM347.903 241.181C341.963 241.418 337.023 241.565 333.083 241.623C329.143 241.681 326.909 241.649 326.382 241.528C319.525 239.878 315.078 235.238 313.041 227.607C312.783 226.951 312.543 225.922 312.321 224.52C312.169 223.04 311.972 220.706 311.731 217.519C311.56 214.255 311.313 209.543 310.99 203.385C310.671 197.3 310.285 189.211 309.83 179.116C309.254 168.134 308.757 158.637 308.337 150.623C307.987 142.531 307.666 135.703 307.375 130.138C307.153 124.495 306.948 119.856 306.757 116.22C306.641 112.58 306.528 109.722 306.419 107.644C306.381 105.489 306.371 103.889 306.391 102.847C306.407 101.73 306.44 100.947 306.491 100.498C306.612 99.9706 306.7 99.5196 306.755 99.1447C306.751 99.0705 306.784 98.9944 306.855 98.9163C308.57 93.3206 312.343 89.3655 318.174 87.051C322.115 85.5796 336.028 84.1437 359.912 82.7431C365.477 82.4515 369.857 82.2592 373.051 82.1661C376.242 81.9989 378.622 81.9858 380.192 82.1267C381.832 82.1896 383.072 82.4222 383.911 82.8246C384.747 83.1529 385.592 83.6666 386.447 84.3658C388.075 85.6197 389.157 87.0883 389.691 88.7716C390.3 90.4509 390.681 92.7375 390.832 95.6313L390.902 96.9668C391.252 103.645 391.105 108.637 390.459 111.945C389.814 115.253 388.631 117.51 386.908 118.716C385.979 119.434 384.819 120.016 383.428 120.461C382.038 120.906 380.013 121.309 377.354 121.672C374.69 121.96 370.951 122.305 366.136 122.706C361.098 123.119 357.361 123.501 354.924 123.852C352.483 124.129 350.868 124.548 350.079 125.11C349.29 125.672 348.704 126.559 348.321 127.769C348.008 128.902 347.889 130.173 347.963 131.582L348.033 132.918C348.29 134.988 348.817 136.523 349.613 137.523C350.332 138.452 351.298 139.146 352.513 139.603C353.723 139.986 355.596 140.222 358.13 140.313C362.234 140.544 365.249 141.279 367.174 142.517C369.169 143.678 370.498 145.617 371.162 148.335C371.454 149.659 371.682 151.879 371.846 154.995C372.013 158.186 372.104 161.343 372.119 164.467C372.134 167.592 372.026 169.792 371.795 171.069C370.943 176.099 367.074 178.943 360.189 179.601C355.893 179.975 353.183 180.787 352.058 182.036C351.003 183.208 350.558 185.351 350.721 188.468L350.814 190.249C350.985 193.513 351.366 195.8 351.955 197.108C352.619 198.413 353.741 199.247 355.323 199.61C356.908 200.048 362.531 200.163 372.193 199.954C377.317 199.76 381.183 199.706 383.791 199.792C386.474 199.875 388.458 200.106 389.743 200.485C391.023 200.79 392.205 201.323 393.286 202.085C396.129 203.796 397.825 207.762 398.374 213.983C398.495 214.87 398.581 215.795 398.631 216.76C398.728 218.615 398.718 220.55 398.601 222.565C398.467 225.697 398.197 228.352 397.79 230.531C397.419 231.964 396.638 233.382 395.446 234.783C394.325 236.107 393.036 237.067 391.58 237.665C389.908 238.422 386.702 238.999 381.961 239.396C377.294 239.79 373.031 240.087 369.173 240.29C363.385 240.593 356.296 240.89 347.903 241.181ZM452.244 232.476C447.386 232.061 444.215 229.772 442.732 225.609C442.482 225.101 442.091 221.178 441.557 213.84C441.098 206.499 440.394 193.775 439.445 175.671C438.998 167.138 438.586 159.98 438.208 154.196C437.905 148.408 437.623 143.736 437.362 140.178C437.175 136.617 436.995 133.873 436.819 131.948C436.718 130.019 436.572 128.65 436.381 127.842C436.26 126.955 436.118 126.367 435.954 126.078C435.454 125.063 434.857 124.313 434.162 123.828C433.463 123.27 432.365 122.918 430.87 122.773C429.448 122.625 427.324 122.55 424.497 122.549C418.994 122.614 414.919 122.233 412.272 121.404C409.624 120.576 407.799 119.109 406.796 117.004C406.386 116.281 406.048 115.518 405.783 114.713C405.592 113.905 405.414 112.649 405.251 110.947C405.157 109.166 405.017 106.495 404.831 102.933C404.679 100.039 404.56 97.7763 404.475 96.1439C404.463 94.5077 404.473 93.2795 404.505 92.4594C404.532 91.5651 404.609 90.8915 404.734 90.4385C404.929 89.9075 405.16 89.3374 405.425 88.7282C406.91 85.8231 409.199 84.0663 412.292 83.4578C413.327 83.3291 417.775 83.0216 425.636 82.5352C433.571 82.0449 443.102 81.471 454.228 80.8135L459.682 80.5277C467.176 80.135 473.297 79.8142 478.046 79.5653C482.869 79.3125 486.657 79.1884 489.41 79.1929C492.234 79.1194 494.321 79.196 495.672 79.4228C497.094 79.5715 498.113 79.8529 498.73 80.267C499.421 80.6772 500.081 81.2006 500.709 81.8373C500.791 81.9818 500.908 82.0873 501.061 82.1537C502.08 83.1419 502.841 84.1809 503.345 85.2706C503.844 86.286 504.186 87.8306 504.369 89.9043C504.626 91.9741 504.865 95.1236 505.087 99.353C505.258 102.618 505.351 105.105 505.366 106.816C505.456 108.522 505.448 109.788 505.342 110.612C505.311 111.432 505.194 112.033 504.99 112.416C503.99 114.626 502.398 116.197 500.215 117.13C498.032 118.063 494.347 118.74 489.161 119.16C486.791 119.359 484.979 119.566 483.725 119.78C482.542 119.917 481.659 120.112 481.077 120.365C480.491 120.545 480.021 120.793 479.665 121.109C479.525 121.265 479.382 121.384 479.238 121.466C478.808 121.786 478.454 122.14 478.177 122.526C477.9 122.913 477.675 123.594 477.503 124.57C477.401 125.469 477.329 126.923 477.285 128.934C477.312 130.867 477.378 133.542 477.483 136.96C477.662 140.373 477.854 144.752 478.06 150.099C478.336 155.367 478.674 161.822 479.075 169.465L479.29 173.583C479.761 182.561 480.152 190.018 480.463 195.954C480.774 201.89 480.988 206.677 481.104 210.317C481.291 213.879 481.397 216.626 481.424 218.559C481.522 220.414 481.519 221.791 481.418 222.689C481.386 223.509 481.271 224.147 481.071 224.604C480.063 228.08 478.094 230.266 475.165 231.164C474.142 231.515 472.482 231.788 470.186 231.983C467.886 232.103 465.957 232.204 464.399 232.286L459.501 232.542C456.233 232.639 453.814 232.617 452.244 232.476ZM563.682 231.435C557.07 231.633 551.238 231.79 546.185 231.906C541.128 231.948 538.037 231.886 536.912 231.722C532.355 231.366 527.648 228.859 522.791 224.203C518.425 220.414 516.087 217.672 515.775 215.978C515.537 214.279 515.408 213.244 515.389 212.873C515.233 209.905 516.396 205.826 518.877 200.637C519.608 198.962 520.512 197.054 521.59 194.914C522.665 192.7 523.679 190.75 524.632 189.063C526.46 185.619 528.521 181.642 530.814 177.132C533.178 172.544 535.3 168.304 537.179 164.411C537.847 162.962 538.923 160.785 540.408 157.88C541.889 154.901 543.405 151.882 544.956 148.825C546.655 145.76 548.517 142.24 550.54 138.265C552.56 134.215 554.346 130.662 555.897 127.605C557.784 123.86 559.122 121 559.911 119.024C560.775 117.044 561.181 115.572 561.131 114.607C561.084 113.717 560.672 112.957 559.895 112.328C559.661 112.118 559.317 111.95 558.864 111.824C558.482 111.621 557.769 111.51 556.726 111.49C555.754 111.392 554.229 111.398 552.151 111.507C550.07 111.541 547.172 111.619 543.458 111.739C538.038 111.949 533.988 112.049 531.309 112.041C528.701 111.954 526.791 111.72 525.581 111.337C524.37 110.954 523.22 110.307 522.131 109.397C521.123 108.631 520.331 107.706 519.753 106.62C519.172 105.46 518.713 103.81 518.378 101.67C518.117 99.5258 517.881 96.4504 517.671 92.4437C517.515 89.4757 517.415 86.8397 517.368 84.5356C517.396 82.2277 517.504 80.7339 517.691 80.0545C517.988 78.6253 518.737 77.284 519.936 76.0307C521.131 74.7032 522.459 73.778 523.92 73.255C525.095 72.9702 529.428 72.5943 536.918 72.1274C544.479 71.5823 553.082 71.0571 562.728 70.5515C572.374 70.046 580.948 69.6711 588.45 69.4267C596.022 69.1043 600.409 69.0604 601.612 69.2949C603.49 69.6429 605.175 70.5591 606.667 72.0434C608.158 73.5277 609.927 76.0391 611.972 79.5776C614.1 83.2607 615.394 85.9458 615.854 87.6329C616.385 89.242 616.677 90.5659 616.732 91.6047C616.782 92.5693 616.72 93.5026 616.544 94.4046C616.383 95.6035 616.043 96.9234 615.524 98.3643C615.004 99.8051 614.107 101.861 612.834 104.532C611.556 107.129 609.665 110.799 607.161 115.543C605.328 118.913 603.4 122.585 601.377 126.56C599.349 130.461 597.661 133.749 596.313 136.424C595.024 138.798 593.639 141.474 592.158 144.454C590.334 147.972 588.746 151.031 587.394 153.632C586.175 155.928 585.026 158.146 583.948 160.285C582.944 162.421 582.243 163.946 581.844 164.86C581.375 165.852 580.637 167.378 579.629 169.44C578.617 171.428 577.535 173.493 576.382 175.637C574.351 179.464 573.11 182.058 572.661 183.421C572.286 184.78 572.118 185.83 572.156 186.572C572.188 187.166 572.326 187.68 572.572 188.113C572.826 188.695 573.222 189.158 573.761 189.502C574.37 189.767 575.348 189.977 576.695 190.129C578.043 190.282 579.982 190.366 582.512 190.382C585.117 190.395 588.536 190.327 592.769 190.18C598.42 190.107 602.661 190.108 605.492 190.182C608.32 190.183 610.378 190.41 611.666 190.863C613.025 191.239 614.284 191.842 615.444 192.674C616.596 193.358 617.461 194.243 618.038 195.328C618.686 196.336 619.088 197.617 619.244 199.171C619.474 200.722 619.628 202.239 619.706 203.723C619.784 205.207 619.838 206.953 619.869 208.96C620.02 211.854 620.102 214.119 620.113 215.755C620.121 217.317 620.072 218.51 619.966 219.334C619.857 220.084 619.665 220.689 619.392 221.15C617.993 224.273 615.768 226.548 612.718 227.972C611.917 228.312 611.076 228.579 610.193 228.774C609.314 229.044 607.987 229.262 606.21 229.43C604.433 229.597 601.838 229.77 598.425 229.949C595.308 230.113 590.409 230.332 583.727 230.608C577.046 230.884 570.364 231.159 563.682 231.435Z" fill="#323C55"/>
<path d="M35.271 216.076C35.2344 216.078 35.2152 216.06 35.2133 216.024C34.7644 215.864 34.3328 215.685 33.9187 215.486C33.5392 215.249 32.9872 214.874 32.2629 214.361C31.5367 213.812 30.4657 212.987 29.0498 211.887C27.6706 210.784 25.7375 209.271 23.2506 207.345C22.9809 207.103 22.6929 206.861 22.3866 206.62C20.2041 204.899 18.4434 203.523 17.1046 202.492C15.8005 201.422 14.8027 200.593 14.1111 200.006C13.4543 199.379 12.9689 198.872 12.6549 198.485C12.341 198.098 12.1012 197.725 11.9356 197.367C11.6486 196.794 11.3646 195.928 11.0836 194.768C10.8026 193.608 10.561 192.501 10.3589 191.447C10.1916 190.355 10.0897 189.461 10.0532 188.765L10.0273 188.271C9.98893 187.539 10.0459 186.875 10.1983 186.28C10.3506 185.685 10.7515 184.93 11.401 184.015C12.0505 183.1 13.1027 181.815 14.5577 180.16C16.0474 178.467 18.0931 176.176 20.6948 173.286C23.5045 170.166 25.6388 167.815 27.0977 166.233C28.5565 164.652 29.6193 163.568 30.2861 162.983C30.9509 162.36 31.4972 161.928 31.925 161.685C32.9578 161.081 33.9501 160.753 34.9019 160.703C35.4144 160.676 35.9317 160.741 36.4538 160.897C37.8332 161.302 39.7153 162.543 42.1 164.621C43.982 166.211 45.2197 167.412 45.8129 168.226C46.4427 169.037 46.7826 169.918 46.8325 170.87C46.8747 171.675 46.7849 172.414 46.5632 173.087C46.3396 173.722 45.7623 174.615 44.8315 175.765C43.8987 176.879 42.4428 178.515 40.4636 180.674C38.9026 182.408 37.5507 183.929 36.4079 185.237C35.3017 186.543 34.6648 187.347 34.4971 187.65C34.1598 188.218 34.0055 188.777 34.0343 189.326C34.0554 189.728 34.1873 190.144 34.43 190.571C35.0328 191.568 36.4409 192.87 38.6543 194.48C40.6808 196.025 42.4646 197.492 44.0056 198.879C45.5813 200.228 46.5704 201.241 46.9729 201.917C47.2118 202.272 47.3581 202.613 47.412 202.941C47.4639 203.232 47.4995 203.56 47.5187 203.926L47.5503 204.53C47.6153 207.17 45.9653 210.358 42.6005 214.095C41.3903 215.517 40.4595 216.318 39.8083 216.499C39.157 216.68 38.7032 216.777 38.447 216.79C37.5318 216.838 36.4732 216.6 35.271 216.076Z" fill="#323C55"/>
<path d="M634.474 169.517C633.333 170.164 632.305 170.512 631.39 170.56C631.133 170.573 630.672 170.524 630.005 170.412C629.375 170.298 628.366 169.599 626.977 168.313C623.24 164.949 621.284 161.949 621.11 159.316L621.064 158.437C621.05 158.181 621.055 157.923 621.078 157.665C621.099 157.371 621.192 157.035 621.356 156.66C621.685 155.945 622.545 154.835 623.934 153.331C625.359 151.788 626.998 150.142 628.851 148.393C630.884 146.561 632.149 145.118 632.644 144.065C632.841 143.614 632.928 143.187 632.907 142.784C632.879 142.235 632.667 141.696 632.272 141.166C632.11 140.881 631.393 140.147 630.119 138.966C628.846 137.785 627.343 136.414 625.609 134.853C623.452 132.91 621.851 131.434 620.807 130.424C619.761 129.378 619.075 128.551 618.75 127.944C618.459 127.299 618.292 126.573 618.25 125.768C618.2 124.816 618.446 123.904 618.988 123.031C619.529 122.158 620.635 120.834 622.303 119.058C624.458 116.743 626.218 115.311 627.584 114.762C628.087 114.552 628.595 114.434 629.108 114.407C630.059 114.357 631.062 114.58 632.116 115.075C632.567 115.272 633.155 115.644 633.881 116.194C634.606 116.706 635.776 117.673 637.392 119.093C639.008 120.514 641.358 122.63 644.442 125.441C647.368 128.041 649.642 130.106 651.264 131.636C652.921 133.128 654.12 134.294 654.861 135.137C655.64 135.977 656.136 136.685 656.349 137.261C656.563 137.837 656.689 138.491 656.728 139.223L656.748 139.608C656.784 140.303 656.759 141.222 656.672 142.365C656.583 143.471 656.459 144.615 656.301 145.798C656.143 146.981 655.951 147.872 655.726 148.471C655.598 148.845 655.399 149.241 655.127 149.659C654.892 150.075 654.462 150.63 653.838 151.323C653.211 151.98 652.306 152.909 651.12 154.109C649.933 155.272 648.345 156.824 646.354 158.763C646.074 159.035 645.812 159.287 645.568 159.52C643.334 161.73 641.571 163.456 640.278 164.698C638.985 165.94 638.006 166.873 637.341 167.495C636.674 168.081 636.146 168.512 635.757 168.789C635.402 169.028 634.992 169.252 634.526 169.46C634.527 169.496 634.51 169.515 634.474 169.517Z" fill="#323C55"/>
</svg>
