<svg width="330" height="78" viewBox="0 0 330 78" fill="none" xmlns="http://www.w3.org/2000/svg">
<path fill-rule="evenodd" clip-rule="evenodd" d="M0.697754 33.8277C0.985754 33.7637 1.27375 33.6837 1.56175 33.5877C1.84975 33.4597 2.12175 33.2837 2.37775 33.0597C2.66575 32.8357 2.93775 32.5477 3.19375 32.1957C3.44975 31.8117 3.68975 31.3317 3.91375 30.7557L15.9138 0.707722H16.4418L28.9698 30.7557C29.2258 31.3317 29.4498 31.8117 29.6418 32.1957C29.8338 32.5477 30.0258 32.8357 30.2178 33.0597C30.4418 33.2837 30.6658 33.4597 30.8898 33.5877C31.1458 33.6837 31.4178 33.7637 31.7058 33.8277V34.3077H24.6018V33.8277C25.2738 33.7637 25.7698 33.5237 26.0898 33.1077C26.4098 32.6917 26.3298 31.9077 25.8498 30.7557L22.3938 22.4037H7.75375L4.39375 30.8517C4.16975 31.4277 4.07375 31.9077 4.10575 32.2917C4.13775 32.6757 4.24975 32.9797 4.44175 33.2037C4.66575 33.4277 4.92175 33.5877 5.20975 33.6837C5.52975 33.7797 5.83375 33.8277 6.12175 33.8277V34.3077H0.697754V33.8277ZM7.94575 21.9237H22.1538L14.9058 4.49972L7.94575 21.9237ZM36.2796 34.3077V33.8277C36.5676 33.7637 36.8396 33.6837 37.0956 33.5877C37.3836 33.4597 37.6236 33.2997 37.8156 33.1077C38.0076 32.8837 38.1516 32.5957 38.2476 32.2437C38.3756 31.8917 38.4396 31.4277 38.4396 30.8517V4.16372C38.4396 3.04372 38.2316 2.30772 37.8156 1.95572C37.3996 1.57172 36.8876 1.31572 36.2796 1.18772V0.707722H48.1356C49.7676 0.707722 51.2716 0.931722 52.6476 1.37972C54.0556 1.79572 55.2556 2.41972 56.2476 3.25172C57.2716 4.08372 58.0716 5.09172 58.6476 6.27572C59.2236 7.42772 59.5116 8.75572 59.5116 10.2597C59.5116 12.8517 58.7436 14.9957 57.2076 16.6917C55.7036 18.3557 53.6876 19.4277 51.1596 19.9077C52.3116 20.1637 53.3516 20.6917 54.2796 21.4917C55.2396 22.2917 56.1036 23.6037 56.8716 25.4277L59.0796 30.8517C59.4956 31.8757 60.0236 32.5957 60.6636 33.0117C61.3036 33.3957 61.9276 33.6677 62.5356 33.8277V34.3077H57.3516C57.2556 34.0517 57.1276 33.7477 56.9676 33.3957C56.8396 33.0757 56.6956 32.7077 56.5356 32.2917C56.3756 31.8757 56.1836 31.3957 55.9596 30.8517L54.4236 27.0117C53.9436 25.8277 53.4636 24.8197 52.9836 23.9877C52.5356 23.1237 52.0236 22.4197 51.4476 21.8757C50.8716 21.2997 50.1996 20.8837 49.4316 20.6277C48.6956 20.3397 47.7996 20.1957 46.7436 20.1957H41.3196V30.8517C41.3196 31.4277 41.3676 31.8917 41.4636 32.2437C41.5916 32.5957 41.7516 32.8837 41.9436 33.1077C42.1356 33.2997 42.3596 33.4597 42.6156 33.5877C42.9036 33.6837 43.1916 33.7637 43.4796 33.8277V34.3077H36.2796ZM41.3196 19.7157H47.7036C49.1116 19.7157 50.3596 19.4917 51.4476 19.0437C52.5676 18.5637 53.5116 17.9077 54.2796 17.0757C55.0476 16.2437 55.6236 15.2517 56.0076 14.0997C56.4236 12.9157 56.6316 11.6357 56.6316 10.2597C56.6316 8.91572 56.4236 7.68372 56.0076 6.56372C55.6236 5.44372 55.0476 4.48372 54.2796 3.68372C53.5116 2.88372 52.5676 2.25972 51.4476 1.81172C50.3596 1.36372 49.1116 1.13972 47.7036 1.13972L41.3196 1.18772V19.7157ZM67.8265 33.8277C68.1145 33.7637 68.3865 33.6837 68.6425 33.5877C68.9305 33.4597 69.1705 33.2997 69.3625 33.1077C69.5545 32.8837 69.6985 32.5957 69.7945 32.2437C69.9225 31.8917 69.9865 31.4277 69.9865 30.8517V4.16372C69.9865 3.04372 69.7785 2.30772 69.3625 1.95572C68.9465 1.57172 68.4345 1.31572 67.8265 1.18772V0.707722H75.0265V1.18772C74.4185 1.31572 73.9065 1.57172 73.4905 1.95572C73.0745 2.30772 72.8665 3.04372 72.8665 4.16372V30.8517C72.8665 31.4277 72.9145 31.8917 73.0105 32.2437C73.1385 32.5957 73.2985 32.8837 73.4905 33.1077C73.6825 33.2997 73.9065 33.4597 74.1625 33.5877C74.4505 33.6837 74.7385 33.7637 75.0265 33.8277V34.3077H67.8265V33.8277ZM79.5884 33.8277C79.8764 33.7637 80.1644 33.6837 80.4524 33.5877C80.7404 33.4597 81.0124 33.2837 81.2684 33.0597C81.5564 32.8357 81.8284 32.5477 82.0844 32.1957C82.3404 31.8117 82.5804 31.3317 82.8044 30.7557L94.8044 0.707722H95.3324L107.86 30.7557C107.949 30.9556 108.034 31.1439 108.115 31.3206C106.851 32.1821 105.662 33.1791 104.627 34.3077H103.492V33.8277C104.164 33.7637 104.66 33.5237 104.98 33.1077C105.3 32.6917 105.22 31.9077 104.74 30.7557L101.284 22.4037H86.6444L83.2844 30.8517C83.0604 31.4277 82.9644 31.9077 82.9964 32.2917C83.0284 32.6757 83.1404 32.9797 83.3324 33.2037C83.5564 33.4277 83.8124 33.5877 84.1004 33.6837C84.4204 33.7797 84.7244 33.8277 85.0124 33.8277V34.3077H79.5884V33.8277ZM150.65 27.2997L152.598 22.4037H167.237L170.694 30.7557C171.174 31.9077 171.254 32.6917 170.933 33.1077C170.614 33.5237 170.118 33.7637 169.446 33.8277V34.3077H176.549V33.8277C176.262 33.7637 175.989 33.6837 175.734 33.5877C175.51 33.4597 175.286 33.2837 175.062 33.0597C174.87 32.8357 174.678 32.5477 174.486 32.1957C174.293 31.8117 174.07 31.3317 173.814 30.7557L161.286 0.707722H160.758L150.225 27.081C150.368 27.1492 150.51 27.222 150.65 27.2997ZM140.226 27.3322V4.16372C140.226 3.04372 140.434 2.30772 140.85 1.95572C141.266 1.57172 141.778 1.31572 142.386 1.18772V0.707722H137.586V1.18772C138.194 1.31572 138.706 1.57172 139.122 1.95572C139.538 2.30772 139.746 3.04372 139.746 4.16372V27.5145C139.906 27.4515 140.066 27.3907 140.226 27.3322ZM138.697 27.9621L118.962 0.707722H114.69V1.18772C115.298 1.31572 115.81 1.57172 116.226 1.95572C116.642 2.30772 116.85 3.04372 116.85 4.16372V27.4531C117.01 27.4107 117.17 27.3694 117.33 27.3292V3.34772L136.143 29.3307C136.986 28.8134 137.837 28.3559 138.697 27.9621ZM86.8364 21.9237H101.044L93.7964 4.49972L86.8364 21.9237ZM152.79 21.9237H166.998L159.75 4.49972L152.79 21.9237ZM195.514 0.707722H207.226C209.434 0.707722 211.482 1.12372 213.37 1.95572C215.258 2.78772 216.874 3.93972 218.218 5.41172C219.594 6.88372 220.666 8.64372 221.434 10.6917C222.234 12.7077 222.634 14.9157 222.634 17.3157C222.634 18.3923 222.56 19.4367 222.412 20.4489L219.453 20.797C219.654 19.6653 219.754 18.5048 219.754 17.3157C219.754 15.1397 219.418 13.0757 218.746 11.1237C218.074 9.17172 217.146 7.45972 215.962 5.98772C214.778 4.51572 213.402 3.34772 211.834 2.48372C210.266 1.61972 208.586 1.18772 206.794 1.18772H200.554V33.8277H203.704L203.367 34.3077H195.514V33.8277C195.802 33.7637 196.074 33.6837 196.33 33.5877C196.618 33.4597 196.858 33.2997 197.05 33.1077C197.242 32.8837 197.386 32.5957 197.482 32.2437C197.61 31.8917 197.674 31.4277 197.674 30.8517V4.16372C197.674 3.04372 197.466 2.30772 197.05 1.95572C196.634 1.57172 196.122 1.31572 195.514 1.18772V0.707722ZM224.807 33.8277C225.095 33.7637 225.383 33.6837 225.671 33.5877C225.959 33.4597 226.231 33.2837 226.487 33.0597C226.775 32.8357 227.047 32.5477 227.303 32.1957C227.559 31.8117 227.799 31.3317 228.023 30.7557L240.023 0.707722H240.551L253.079 30.7557C253.335 31.3317 253.559 31.8117 253.751 32.1957C253.943 32.5477 254.135 32.8357 254.327 33.0597C254.551 33.2837 254.775 33.4597 254.999 33.5877C255.255 33.6837 255.527 33.7637 255.815 33.8277V34.3077H248.711V33.8277C249.383 33.7637 249.879 33.5237 250.199 33.1077C250.519 32.6917 250.439 31.9077 249.959 30.7557L246.503 22.4037H231.863L228.503 30.8517C228.279 31.4277 228.183 31.9077 228.215 32.2917C228.247 32.6757 228.359 32.9797 228.551 33.2037C228.775 33.4277 229.031 33.5877 229.319 33.6837C229.639 33.7797 229.943 33.8277 230.231 33.8277V34.3077H224.807V33.8277ZM232.055 21.9237H246.263L239.015 4.49972L232.055 21.9237ZM260.389 33.8277C260.677 33.7637 260.949 33.6837 261.205 33.5877C261.493 33.4597 261.733 33.2997 261.925 33.1077C262.117 32.8837 262.261 32.5957 262.357 32.2437C262.485 31.8917 262.549 31.4277 262.549 30.8517V4.16372C262.549 3.04372 262.341 2.30772 261.925 1.95572C261.509 1.57172 260.997 1.31572 260.389 1.18772V0.707722H272.245C273.877 0.707722 275.381 0.931722 276.757 1.37972C278.165 1.79572 279.365 2.41972 280.357 3.25172C281.381 4.08372 282.181 5.09172 282.757 6.27572C283.333 7.42772 283.621 8.75572 283.621 10.2597C283.621 12.8517 282.853 14.9957 281.317 16.6917C279.813 18.3557 277.797 19.4277 275.269 19.9077C276.421 20.1637 277.461 20.6917 278.389 21.4917C279.349 22.2917 280.213 23.6037 280.981 25.4277L283.189 30.8517C283.605 31.8757 284.133 32.5957 284.773 33.0117C285.413 33.3957 286.037 33.6677 286.645 33.8277V34.3077H281.461C281.365 34.0517 281.237 33.7477 281.077 33.3957C280.949 33.0757 280.805 32.7077 280.645 32.2917C280.485 31.8757 280.293 31.3957 280.069 30.8517L278.533 27.0117C278.053 25.8277 277.573 24.8197 277.093 23.9877C276.645 23.1237 276.133 22.4197 275.557 21.8757C274.981 21.2997 274.309 20.8837 273.541 20.6277C272.805 20.3397 271.909 20.1957 270.853 20.1957H265.429V30.8517C265.429 31.4277 265.477 31.8917 265.573 32.2437C265.701 32.5957 265.861 32.8837 266.053 33.1077C266.245 33.2997 266.469 33.4597 266.725 33.5877C267.013 33.6837 267.301 33.7637 267.589 33.8277V34.3077H260.389V33.8277ZM265.429 19.7157H271.813C273.221 19.7157 274.469 19.4917 275.557 19.0437C276.677 18.5637 277.621 17.9077 278.389 17.0757C279.157 16.2437 279.733 15.2517 280.117 14.0997C280.533 12.9157 280.741 11.6357 280.741 10.2597C280.741 8.91572 280.533 7.68372 280.117 6.56372C279.733 5.44372 279.157 4.48372 278.389 3.68372C277.621 2.88372 276.677 2.25972 275.557 1.81172C274.469 1.36372 273.221 1.13972 271.813 1.13972L265.429 1.18772V19.7157ZM291.936 33.8277C292.224 33.7637 292.496 33.6837 292.752 33.5877C293.04 33.4597 293.28 33.2997 293.472 33.1077C293.664 32.8837 293.808 32.5957 293.904 32.2437C294.032 31.8917 294.096 31.4277 294.096 30.8517V4.16372C294.096 3.04372 293.888 2.30772 293.472 1.95572C293.056 1.57172 292.544 1.31572 291.936 1.18772V0.707722H299.136V1.18772C298.528 1.31572 298.016 1.57172 297.6 1.95572C297.184 2.30772 296.976 3.04372 296.976 4.16372V30.8517C296.976 31.4277 297.024 31.8917 297.12 32.2437C297.248 32.5957 297.408 32.8837 297.6 33.1077C297.792 33.2997 298.016 33.4597 298.272 33.5877C298.56 33.6837 298.848 33.7637 299.136 33.8277V34.3077H291.936V33.8277ZM316.898 34.7877C314.594 34.7877 312.69 34.6277 311.186 34.3077C309.682 33.9557 308.482 33.5557 307.586 33.1077C306.53 32.6277 305.714 32.0837 305.138 31.4757V24.8997H305.57C305.794 25.6037 306.098 26.4837 306.482 27.5397C306.898 28.5957 307.522 29.6357 308.354 30.6597C309.186 31.6517 310.29 32.5157 311.666 33.2517C313.042 33.9557 314.786 34.3077 316.898 34.3077C318.274 34.3077 319.586 34.1477 320.834 33.8277C322.082 33.5077 323.17 33.0597 324.098 32.4837C325.058 31.9077 325.81 31.2197 326.354 30.4197C326.93 29.5877 327.218 28.6757 327.218 27.6837C327.218 26.5317 326.898 25.5397 326.258 24.7077C325.65 23.8757 324.834 23.1237 323.81 22.4517C322.818 21.7797 321.666 21.1877 320.354 20.6757C319.074 20.1317 317.746 19.6037 316.37 19.0917C315.026 18.5477 313.698 18.0037 312.386 17.4597C311.106 16.8837 309.954 16.2437 308.93 15.5397C307.938 14.8037 307.122 13.9717 306.482 13.0437C305.874 12.0837 305.57 10.9797 305.57 9.73172C305.57 8.32372 305.826 7.04372 306.338 5.89172C306.85 4.70772 307.586 3.69972 308.546 2.86772C309.538 2.03572 310.738 1.39572 312.146 0.947721C313.554 0.467722 315.138 0.227722 316.898 0.227722C318.018 0.227722 319.09 0.371722 320.114 0.659722C321.138 0.915723 322.082 1.23572 322.946 1.61972C323.842 1.97172 324.642 2.35572 325.346 2.77172C326.05 3.15572 326.626 3.49172 327.074 3.77972V9.34772H326.642C326.546 9.02772 326.29 8.40372 325.874 7.47572C325.458 6.54772 324.85 5.58772 324.05 4.59572C323.282 3.57172 322.306 2.67572 321.122 1.90772C319.938 1.10772 318.53 0.707722 316.898 0.707722C315.49 0.707722 314.21 0.883722 313.058 1.23572C311.938 1.55572 310.962 2.03572 310.13 2.67572C309.33 3.28372 308.706 4.01972 308.258 4.88372C307.842 5.71572 307.634 6.65972 307.634 7.71572C307.634 8.86772 307.938 9.85972 308.546 10.6917C309.186 11.5237 310.002 12.2757 310.994 12.9477C312.018 13.6197 313.17 14.2277 314.45 14.7717C315.762 15.2837 317.09 15.8117 318.434 16.3557C319.81 16.8677 321.138 17.4117 322.418 17.9877C323.73 18.5317 324.882 19.1717 325.874 19.9077C326.898 20.6117 327.714 21.4437 328.322 22.4037C328.962 23.3317 329.282 24.4197 329.282 25.6677C329.282 26.9797 329.01 28.1957 328.466 29.3157C327.954 30.4357 327.186 31.4117 326.162 32.2437C325.138 33.0437 323.842 33.6677 322.274 34.1157C320.738 34.5637 318.946 34.7877 316.898 34.7877Z" fill="#323C55"/>
<path d="M102.838 72.4677C98.4958 72.4677 95.9978 70.6536 95.9978 68.3935C95.9978 66.6389 97.5442 65.9252 98.7635 65.9252C99.4177 65.9252 100.25 66.3415 100.25 67.2932C100.25 68.0664 99.4772 68.7801 98.5553 68.7801C98.0498 68.7801 97.5739 68.7206 97.1873 68.4827V68.6314C97.1873 70.386 99.4475 71.754 102.362 71.754C110.837 71.754 115.655 62.2971 120.83 53.7621L121.424 52.7807C111.997 52.4536 105.009 48.7066 105.365 43.0265C105.782 35.9784 115.506 30.7444 126.361 30.7444C129.275 30.7444 131.863 31.4582 131.863 31.9935C131.863 32.1124 131.863 32.1124 131.506 32.1124C131.238 32.1124 131 32.0232 130.673 31.9935C129.394 31.6961 128.175 31.4284 126.331 31.4284C117.142 31.4284 107.715 36.3353 107.358 43.5915C107.12 47.1899 111.789 51.7101 121.9 52.0373C131.357 37.1382 139.119 30.7444 146.256 30.7444C148.635 30.7444 150.152 32.0529 150.033 34.432C149.676 40.5284 139.267 50.9072 126.361 52.5726C119.58 62.9811 112.681 72.4677 102.838 72.4677ZM126.926 51.7399C138.375 49.8664 148.1 40.2311 148.427 34.3131C148.605 32.1719 147.297 31.4582 146.226 31.4879C141.319 31.6663 135.966 37.5546 129.037 48.4686C128.324 49.569 127.61 50.6396 126.926 51.7399ZM135.134 72.4677C132.963 72.4677 131.863 71.4863 131.863 70.1481C131.863 68.0069 132.457 66.7876 138.821 57.8363L146.494 47.0412H144.145C143.52 47.0412 143.252 46.9817 143.252 46.6546C143.252 46.2383 143.698 46.1788 144.382 46.1788H147.089L152.59 38.4467C153.096 38.536 153.839 38.5954 155.445 38.5657C155.772 38.5657 156.218 38.536 156.724 38.4467L150.984 46.1788H158.657C159.252 46.1788 159.49 46.3275 159.49 46.5951C159.49 46.8925 159.252 47.0412 158.746 47.0412H150.33L142.479 57.6281C135.045 67.65 133.914 69.8209 133.914 70.6834C133.914 71.2781 134.48 71.6053 135.401 71.635C140.873 71.5755 147.565 63.219 149.973 60.3343L150.628 60.8399C148.308 63.5164 141.2 72.4677 135.134 72.4677ZM148.546 72.4677C145.959 72.4677 144.948 70.951 144.918 69.4641C144.769 66.5497 147.237 63.3677 151.639 58.2229C153.185 56.4088 154.85 54.2082 156.694 52.2157C157.2 52.3049 158.33 52.3941 159.073 52.3941C159.638 52.3941 160.887 52.3644 161.215 52.3049C157.854 55.9033 154.285 60.2154 151.639 63.4569C150.33 65.0925 147.267 68.1258 147.356 70.6536C147.356 71.2187 147.683 71.7242 148.784 71.7242C149.587 71.7242 151.431 71.2781 153.334 70.0291C155.981 68.2448 159.371 65.2412 163.356 60.3343C164.218 59.2637 164.724 58.669 165.199 58.1039C166.567 56.4088 168.203 54.4758 170.106 52.2157C171.355 52.3347 171.623 52.3941 172.485 52.3941C173.407 52.3941 174.121 52.3644 174.627 52.3049C171.117 56.1412 165.646 63.0405 162.315 67.1147C160.412 69.3451 160.144 69.8209 160.144 70.5644C160.174 71.0402 160.263 71.635 161.69 71.635C166.984 71.635 175.251 61.4644 176.351 60.3343L176.946 60.8399C175.727 62.0889 167.222 72.4677 161.482 72.4677C159.876 72.4677 158.687 71.516 158.657 69.9399C158.598 68.5124 159.014 67.0553 160.144 65.0925C157.586 67.8582 155.505 69.6723 153.482 70.8915C151.46 72.1108 149.765 72.4677 148.546 72.4677ZM176.827 72.4677C174.329 72.4677 173.05 71.0105 173.05 68.5719C173.05 65.9252 174.151 62.8026 176.768 59.8288C182.121 53.6134 186.998 52.0373 190.894 52.0373C192.529 52.0373 194.522 52.8402 194.522 54.4758C194.522 54.6543 194.492 54.803 194.492 54.9814C199.25 48.1118 206.834 37.1085 215.487 24.9752C216.052 25.2131 216.945 25.451 217.985 25.451C218.313 25.451 218.759 25.4212 219.264 25.3618L191.013 64.9736C188.723 68.0366 187.533 69.7615 187.533 70.7726C187.533 71.3376 187.682 71.5755 188.277 71.5755C194.849 71.5755 202.075 61.4644 203.205 60.3343L203.86 60.8399C202.581 62.0889 194.819 72.4677 187.801 72.4677C185.838 72.4677 185.095 71.635 185.095 70.4455C185.124 69.1072 186.254 67.3229 188.663 64.4383L188.425 64.3193C183.043 70.3265 179.236 72.4677 176.827 72.4677ZM177.035 71.5755C178.612 71.5755 180.753 70.5644 184.411 67.2634C185.957 65.8062 187.682 64.1706 189.496 61.97C190.031 61.3157 191.221 59.6206 192.946 57.1523C193.362 56.2899 193.63 55.4572 193.63 54.7435C193.63 53.5242 192.47 52.9592 191.369 52.9592C189.436 52.9592 185.005 55.6951 179.801 61.8213C176.827 65.4196 175.549 68.1258 175.549 70.0291C175.549 71.1592 176.114 71.5755 177.035 71.5755ZM216.766 46.3572C215.666 46.3572 214.952 45.584 214.952 44.5134C214.952 43.1454 216.29 41.718 217.926 41.718C219.026 41.718 219.74 42.5507 219.74 43.5915C219.74 45.0487 218.223 46.3572 216.766 46.3572ZM201.57 72.4677C199.131 72.4677 197.525 71.516 197.525 69.9994C197.525 67.6203 199.191 64.5572 209.748 52.2454C210.105 52.3049 211.859 52.3347 212.603 52.3347C213.287 52.3347 213.525 52.3049 213.852 52.2752C202.254 65.9252 199.904 68.9883 199.904 70.6239C199.904 71.6647 201.391 71.635 202.075 71.635C207.399 71.635 216.201 60.9291 216.766 60.3046L217.361 60.8399C216.231 61.9997 208.083 72.4677 201.57 72.4677ZM218.461 72.4677C215.131 72.4677 213.614 70.7428 213.435 68.5124C213.317 65.8062 214.863 62.3863 216.32 60.2749C219.205 56.1709 224.29 52.0373 229.524 52.0373C231.606 52.0373 233.36 53.0781 233.509 55.4572C233.687 58.8474 232.022 62.7432 229.465 65.9252C229.584 66.4307 230.03 66.7876 230.803 66.7876C233.747 66.7876 238.297 61.1075 239.07 60.3343L239.724 60.8399C238.208 62.2971 233.806 67.6203 230.743 67.6203C229.851 67.6203 229.167 67.3526 228.81 66.7281C225.866 70.0589 222 72.4677 218.461 72.4677ZM219.234 71.5755C220.632 71.5755 222.565 70.7131 224.379 69.4046C225.926 68.3043 227.323 66.9958 228.513 65.5683V65.4494C228.513 62.9811 230.149 61.5239 231.368 61.1373C232.319 59.1448 232.766 57.2415 232.676 55.6951C232.557 53.7621 231.517 53.1079 230.446 53.1079C228.156 53.1079 224.706 55.9033 220.602 61.0183C217.658 64.7059 216.617 67.1147 216.766 68.9883C216.766 70.0589 217.42 71.5755 219.234 71.5755Z" fill="#526680"/>
</svg>
