<svg width="177" height="79" viewBox="0 0 177 79" fill="none" xmlns="http://www.w3.org/2000/svg">
<path fill-rule="evenodd" clip-rule="evenodd" d="M0.695679 33.8369C0.983679 33.7729 1.27168 33.6929 1.55968 33.5969C1.84768 33.4689 2.11968 33.2929 2.37568 33.0689C2.66368 32.8449 2.93568 32.5569 3.19168 32.2049C3.44768 31.8209 3.68768 31.3409 3.91168 30.7649L15.9117 0.716858H16.4397L28.9677 30.7649C29.2237 31.3409 29.4477 31.8209 29.6397 32.2049C29.8317 32.5569 30.0237 32.8449 30.2157 33.0689C30.4397 33.2929 30.6637 33.4689 30.8877 33.5969C31.1437 33.6929 31.4157 33.7729 31.7037 33.8369V34.3169H24.5997V33.8369C25.2717 33.7729 25.7677 33.5329 26.0877 33.1169C26.4077 32.7009 26.3277 31.9169 25.8477 30.7649L22.3917 22.4129H7.75168L4.39168 30.8609C4.16768 31.4369 4.07168 31.9169 4.10368 32.3009C4.13568 32.6849 4.24768 32.9889 4.43968 33.2129C4.66368 33.4369 4.91968 33.5969 5.20768 33.6929C5.52768 33.7889 5.83168 33.8369 6.11968 33.8369V34.3169H0.695679V33.8369ZM7.94368 21.9329H22.1517L14.9037 4.50886L7.94368 21.9329ZM36.2776 34.3169V33.8369C36.5656 33.7729 36.8376 33.6929 37.0936 33.5969C37.3816 33.4689 37.6216 33.3089 37.8136 33.1169C38.0056 32.8929 38.1496 32.6049 38.2456 32.2529C38.3736 31.9009 38.4376 31.4369 38.4376 30.8609V4.17286C38.4376 3.05286 38.2296 2.31686 37.8136 1.96486C37.3976 1.58086 36.8856 1.32486 36.2776 1.19686V0.716858H48.1336C49.7656 0.716858 51.2696 0.940858 52.6456 1.38886C54.0536 1.80486 55.2536 2.42886 56.2456 3.26086C57.2696 4.09286 58.0696 5.10086 58.6456 6.28486C59.2216 7.43686 59.5096 8.76486 59.5096 10.2689C59.5096 12.8609 58.7416 15.0049 57.2056 16.7009C55.7016 18.3649 53.6856 19.4369 51.1576 19.9169C52.3096 20.1729 53.3496 20.7009 54.2776 21.5009C55.2376 22.3009 56.1016 23.6129 56.8696 25.4369L58.798 30.174C58.5904 30.1703 58.382 30.1685 58.1728 30.1685C57.3456 30.1685 56.5262 30.1986 55.7161 30.2571L54.4216 27.0209C53.9416 25.8369 53.4616 24.8289 52.9816 23.9969C52.5336 23.1329 52.0216 22.4289 51.4456 21.8849C50.8696 21.3089 50.1976 20.8929 49.4296 20.6369C48.6936 20.3489 47.7976 20.2049 46.7416 20.2049H41.3176V30.8609C41.3176 31.4369 41.3656 31.9009 41.4616 32.2529C41.5896 32.6049 41.7496 32.8929 41.9416 33.1169C42.1336 33.3089 42.3576 33.4689 42.6136 33.5969C42.7685 33.6485 42.9235 33.6955 43.0785 33.7379C42.7103 33.9248 42.3477 34.1178 41.9908 34.3169H36.2776ZM82.9911 32.0452C83.0085 31.7102 83.1055 31.3154 83.2823 30.8609L86.6423 22.4129H101.282L104.738 30.7649C105.218 31.9169 105.298 32.7009 104.978 33.1169C104.658 33.5329 104.162 33.7729 103.49 33.8369V34.3169H110.594V33.8369C110.306 33.7729 110.034 33.6929 109.778 33.5969C109.554 33.4689 109.33 33.2929 109.106 33.0689C108.914 32.8449 108.722 32.5569 108.53 32.2049C108.338 31.8209 108.114 31.3409 107.858 30.7649L95.3303 0.716858H94.8023L82.8023 30.7649C82.5783 31.3409 82.3383 31.8209 82.0823 32.2049C82.0772 32.2119 82.072 32.2189 82.0669 32.226C82.3754 32.159 82.6836 32.0986 82.9911 32.0452ZM72.9904 34.3169H75.0244V33.8369C74.7364 33.7729 74.4484 33.6929 74.1604 33.5969C73.9044 33.4689 73.6804 33.3089 73.4884 33.1169C73.2964 32.8929 73.1364 32.6049 73.0084 32.2529C72.9124 31.9009 72.8644 31.4369 72.8644 30.8609V4.17286C72.8644 3.05286 73.0724 2.31686 73.4884 1.96486C73.9044 1.58086 74.4164 1.32486 75.0244 1.19686V0.716858H67.8244V1.19686C68.4324 1.32486 68.9444 1.58086 69.3604 1.96486C69.7764 2.31686 69.9844 3.05286 69.9844 4.17286V30.8609C69.9844 31.4369 69.9204 31.9009 69.7924 32.2529C69.7725 32.3258 69.7506 32.3959 69.7266 32.4633C70.8822 32.9895 71.9732 33.6071 72.9904 34.3169ZM41.3176 19.7249H47.7016C49.1096 19.7249 50.3576 19.5009 51.4456 19.0529C52.5656 18.5729 53.5096 17.9169 54.2776 17.0849C55.0456 16.2529 55.6216 15.2609 56.0056 14.1089C56.4216 12.9249 56.6296 11.6449 56.6296 10.2689C56.6296 8.92486 56.4216 7.69286 56.0056 6.57286C55.6216 5.45286 55.0456 4.49286 54.2776 3.69286C53.5096 2.89286 52.5656 2.26886 51.4456 1.82086C50.3576 1.37286 49.1096 1.14886 47.7016 1.14886L41.3176 1.19686V19.7249ZM86.8343 21.9329H101.042L93.7943 4.50886L86.8343 21.9329ZM114.688 0.716858H118.96L139.744 29.4209V4.17286C139.744 3.05286 139.536 2.31686 139.12 1.96486C138.704 1.58086 138.192 1.32486 137.584 1.19686V0.716858H142.384V1.19686C141.776 1.32486 141.264 1.58086 140.848 1.96486C140.432 2.31686 140.224 3.05286 140.224 4.17286V34.3169H139.744L117.328 3.35686V30.8609C117.328 31.4369 117.376 31.9009 117.472 32.2529C117.6 32.6049 117.76 32.8929 117.952 33.1169C118.144 33.3089 118.368 33.4689 118.624 33.5969C118.912 33.6929 119.2 33.7729 119.488 33.8369V34.3169H114.688V33.8369C114.976 33.7729 115.248 33.6929 115.504 33.5969C115.792 33.4689 116.032 33.3089 116.224 33.1169C116.416 32.8929 116.56 32.6049 116.656 32.2529C116.784 31.9009 116.848 31.4369 116.848 30.8609V4.17286C116.848 3.05286 116.64 2.31686 116.224 1.96486C115.808 1.58086 115.296 1.32486 114.688 1.19686V0.716858ZM145.539 33.8369C145.827 33.7729 146.115 33.6929 146.403 33.5969C146.691 33.4689 146.963 33.2929 147.219 33.0689C147.507 32.8449 147.779 32.5569 148.035 32.2049C148.291 31.8209 148.531 31.3409 148.755 30.7649L160.755 0.716858H161.283L173.811 30.7649C174.067 31.3409 174.291 31.8209 174.483 32.2049C174.675 32.5569 174.867 32.8449 175.059 33.0689C175.283 33.2929 175.507 33.4689 175.731 33.5969C175.987 33.6929 176.259 33.7729 176.547 33.8369V34.3169H169.443V33.8369C170.115 33.7729 170.611 33.5329 170.931 33.1169C171.251 32.7009 171.171 31.9169 170.691 30.7649L167.235 22.4129H152.595L149.235 30.8609C149.011 31.4369 148.915 31.9169 148.947 32.3009C148.979 32.6849 149.091 32.9889 149.283 33.2129C149.507 33.4369 149.763 33.5969 150.051 33.6929C150.371 33.7889 150.675 33.8369 150.963 33.8369V34.3169H145.539V33.8369ZM152.787 21.9329H166.995L159.747 4.50886L152.787 21.9329Z" fill="#323C55"/>
<path d="M31.3486 76.0166C27.4826 76.0166 25.9957 74.9163 25.9957 73.8159C25.9957 72.6561 28.1368 71.2584 32.1218 71.2584C34.1738 71.2584 36.2257 71.6748 40.3594 72.894C40.4784 72.9535 40.5973 72.9535 40.746 73.013C44.8797 70.7529 49.6676 66.1136 57.1914 56.9839C60.6114 52.8502 63.5258 49.1032 67.9271 44.9993C69.1761 43.8097 70.663 42.6202 72.2986 41.5198C69.533 37.2375 64.5071 35.3937 58.3512 35.3937C46.545 35.3937 35.6607 46.3672 35.6607 53.3261C35.6607 56.181 37.7127 58.0842 41.311 58.0842C47.4372 58.0842 59.8382 48.9842 60.3735 40.9548C60.4329 40.4195 60.5222 40.2708 60.7006 40.2708C60.879 40.2708 61.0575 40.3898 61.0575 40.8953C61.0575 49.46 51.4222 58.9169 41.2218 58.9169C37.564 58.9169 33.9359 56.3891 33.9359 52.6421C33.9359 43.78 44.7607 34.68 58.1728 34.68C65.0424 34.68 70.2764 36.9104 73.399 40.8061C77.2947 38.3676 81.815 36.4643 85.562 36.2859C85.8297 36.2859 86.0081 36.4048 86.0081 36.5832C86.0081 36.8211 85.9189 36.8806 85.0268 37.0293C81.4581 37.4754 77.83 39.3489 74.4101 42.293C75.8375 44.6721 76.6107 47.5568 76.6107 50.8578C76.6107 65.4297 64.2692 75.8976 51.1248 75.8976C48.1509 75.8976 45.7123 75.4516 41.995 74.381C38.8427 75.4516 35.3336 76.0166 31.3486 76.0166ZM51.2735 75.0055C62.931 75.0055 74.7075 64.8944 74.7075 50.9767C74.7075 47.9434 74.2019 45.3859 73.2503 43.3042C70.9604 45.4453 68.7597 48.0623 66.7078 51.0362C59.8382 60.9391 53.4444 69.8904 43.3927 73.8457C45.4447 74.4702 47.794 75.0055 51.2735 75.0055ZM31.8542 75.065C34.5306 75.065 36.9097 74.7676 39.4078 73.6672C36.7908 72.9833 34.4712 72.5372 31.9136 72.5372C28.5234 72.5372 26.8283 73.1617 26.8283 73.8159C26.8283 74.6784 28.3748 75.065 31.8542 75.065ZM77.3542 75.8976C74.7967 75.8976 73.6964 74.4405 73.6964 72.0019C73.6964 69.3552 74.7372 66.2326 77.3542 63.2587C82.7071 57.0434 87.3166 55.4672 91.4205 55.4672C93.4725 55.4672 95.1081 56.3891 95.1081 57.9058C95.1081 58.4708 94.9892 59.0656 94.7513 59.6604C96.0003 58.1734 96.833 57.1029 97.6657 56.062C98.0523 56.181 98.7957 56.2999 99.45 56.2999C99.9853 56.2999 101.175 56.2702 101.68 56.181L91.6585 68.2548C89.1009 71.2584 88.0898 73.0725 88.0898 74.1133C88.0898 74.6784 88.3872 75.065 89.0117 75.065C94.3647 75.065 101.145 65.9352 103.138 63.7048L103.732 64.2104C101.502 66.6787 94.6026 75.8976 88.5656 75.8976C86.5434 75.8976 85.5918 75.2137 85.5918 74.0539C85.5918 72.6859 86.0973 71.645 89.1902 67.8682L88.8928 67.7493C84.0454 73.697 79.7035 75.8976 77.3542 75.8976ZM77.4732 75.0055C80.0009 75.0055 84.1643 72.2993 89.9931 65.3999C90.9447 64.2401 91.7477 63.2587 92.4911 62.3963C93.413 61.0284 94.2755 59.4225 94.2755 58.1734C94.2755 56.9542 93.2346 56.3891 92.1938 56.3891C90.231 56.3891 85.5026 59.0359 80.3281 65.1918C77.3542 68.7604 76.1349 71.5558 76.1349 73.4591C76.1349 74.5891 76.5513 75.0055 77.4732 75.0055ZM107.836 75.8976C105.606 75.8976 104.089 74.6784 104.089 72.8346C104.089 69.6525 109.056 65.0728 116.996 59.7496C112.951 59.0953 110.037 58.4411 108.282 57.6382C107.479 59.244 105.992 61.6231 103.673 64.2699C101.294 67.0653 100.877 66.9761 100.818 67.0653C100.699 67.1248 100.669 66.7382 100.729 66.5597C100.729 66.411 101.145 66.1434 103.048 63.7643C105.041 61.2663 106.647 58.9169 107.479 57.2218C106.766 56.7757 106.349 56.2999 106.23 55.7051C105.903 53.8019 107.182 51.9581 108.877 51.9581C109.829 51.9581 110.453 52.5231 110.453 53.3261C110.453 54.248 110.007 54.813 109.65 55.4078C109.323 55.7944 109.115 56.4189 109.115 56.9839C109.115 57.7571 115.657 58.9467 117.918 59.0953C118.661 59.1251 118.75 59.4225 118.75 59.5414C118.75 59.7496 118.512 60.0172 117.888 60.5228C113.546 63.8833 107.985 70.6637 107.985 73.4888C107.985 74.5297 108.461 74.8865 109.115 74.8865C113.933 74.8865 121.932 65.3404 123.39 63.7643L123.984 64.2699C121.784 66.3516 114.646 75.8976 107.836 75.8976ZM136.891 49.7872C135.791 49.7872 135.077 49.014 135.077 47.9434C135.077 46.5754 136.415 45.1479 138.051 45.1479C139.151 45.1479 139.865 45.9806 139.865 47.0215C139.865 48.4787 138.348 49.7872 136.891 49.7872ZM121.694 75.8976C119.256 75.8976 117.65 74.946 117.65 73.4293C117.65 71.0503 119.315 67.9872 129.873 55.6754C130.229 55.7349 131.984 55.7646 132.727 55.7646C133.411 55.7646 133.649 55.7349 133.976 55.7051C122.378 69.3552 120.029 72.4182 120.029 74.0539C120.029 75.0947 121.516 75.065 122.2 75.065C127.523 75.065 136.326 64.3591 136.891 63.7346L137.486 64.2699C136.356 65.4297 128.207 75.8976 121.694 75.8976ZM135.196 76.5222C133.322 76.5222 129.07 76.1356 129.07 72.8643C129.07 69.9202 132.519 68.4927 133.62 68.4927C134.393 68.4927 134.839 68.8793 134.839 69.6228C134.779 70.2473 133.798 70.9016 132.757 70.9016C132.281 70.9016 131.776 70.4257 131.508 70.2771C131.062 70.7231 129.843 71.5558 129.843 72.894C129.843 75.1542 133.292 75.4516 134.512 75.4516C137.01 75.4516 142.244 72.8346 143.225 64.7159C143.404 62.8127 143.374 59.0061 144.444 55.9133C144.474 55.8241 144.474 55.7349 144.474 55.6457C142.214 58.4411 139.151 62.2179 137.456 64.2699C136.653 65.2215 136.296 65.3999 136.356 65.3999C136.296 65.3999 135.969 65.4891 135.82 65.2215C135.731 65.0431 136.296 64.4185 136.831 63.7643C138.17 62.2179 142.392 57.2218 144.712 54.248C144.95 53.0584 145.366 51.9283 146.258 51.9283C146.942 51.9283 147.448 52.3149 147.448 52.9097C147.418 53.3855 147.002 53.9506 146.08 55.0212C145.009 56.2999 145.158 56.3891 145.158 56.9839C145.099 59.1251 146.14 63.1695 146.318 66.2921C146.377 67.8682 146.199 69.2065 145.783 70.3663C146.021 70.396 146.288 70.4257 146.586 70.4257C149.143 70.4257 153.753 64.8646 154.556 63.7643L155.21 64.2699C153.842 65.6676 149.559 71.1395 146.496 71.1395C146.14 71.1395 145.812 71.1395 145.515 71.08C143.641 75.2137 139.775 76.5222 135.196 76.5222Z" fill="#526680"/>
</svg>
