<svg width="422" height="431" viewBox="0 0 422 431" fill="none" xmlns="http://www.w3.org/2000/svg">
<path d="M159.343 50.1244C187.449 31.2758 223.635 29.3795 253.557 45.1869L272.139 55.0023C277.739 57.9609 283.593 60.4119 289.632 62.3253L309.664 68.6733C341.925 78.8959 365.968 106.004 372.266 139.254L376.176 159.901C377.355 166.125 379.09 172.231 381.359 178.144L388.885 197.764C401.007 229.36 394.804 265.06 372.735 290.715L359.03 306.645C354.899 311.447 351.208 316.61 347.999 322.071L337.353 340.188C320.208 369.365 288.429 386.774 254.61 385.515L233.611 384.733C227.281 384.498 220.943 384.83 214.672 385.726L193.87 388.698C160.368 393.485 126.944 379.494 106.843 352.269L94.3618 335.363C90.5995 330.268 86.3879 325.519 81.7778 321.175L66.4831 306.765C41.8529 283.557 31.9522 248.701 40.7049 216.011L46.1403 195.712C47.7785 189.594 48.8648 183.34 49.3865 177.028L51.1171 156.085C53.9048 122.359 74.9841 92.8856 105.999 79.3469L125.258 70.9398C131.063 68.4057 136.63 65.3562 141.89 61.8283L159.343 50.1244Z" fill="#EDF4FD" stroke="#323C55" stroke-width="14"/>
<path d="M137.887 248.787C137.85 248.789 137.831 248.771 137.829 248.735C137.38 248.575 136.948 248.395 136.534 248.197C136.155 247.96 135.603 247.585 134.878 247.072C134.152 246.523 133.081 245.698 131.665 244.598C130.286 243.495 128.353 241.982 125.866 240.056C125.596 239.813 125.308 239.572 125.002 239.331C122.82 237.61 121.059 236.234 119.72 235.203C118.416 234.133 117.418 233.304 116.727 232.716C116.07 232.09 115.584 231.583 115.27 231.196C114.956 230.809 114.717 230.436 114.551 230.077C114.264 229.505 113.98 228.639 113.699 227.479C113.418 226.319 113.176 225.212 112.974 224.158C112.807 223.066 112.705 222.172 112.669 221.476L112.643 220.982C112.604 220.25 112.661 219.586 112.814 218.991C112.966 218.396 113.367 217.641 114.016 216.726C114.666 215.81 115.718 214.526 117.173 212.871C118.663 211.178 120.709 208.886 123.31 205.997C126.12 202.876 128.254 200.525 129.713 198.944C131.172 197.362 132.235 196.279 132.902 195.693C133.566 195.071 134.113 194.639 134.54 194.396C135.573 193.791 136.566 193.464 137.517 193.414C138.03 193.387 138.547 193.452 139.069 193.608C140.449 194.013 142.331 195.254 144.716 197.332C146.598 198.922 147.835 200.123 148.428 200.936C149.058 201.748 149.398 202.629 149.448 203.581C149.49 204.386 149.4 205.125 149.179 205.798C148.955 206.433 148.378 207.326 147.447 208.476C146.514 209.59 145.058 211.226 143.079 213.385C141.518 215.119 140.166 216.64 139.023 217.948C137.917 219.254 137.28 220.058 137.113 220.361C136.775 220.929 136.621 221.487 136.65 222.037C136.671 222.439 136.803 222.855 137.045 223.282C137.648 224.279 139.056 225.581 141.27 227.191C143.296 228.736 145.08 230.203 146.621 231.59C148.197 232.939 149.186 233.952 149.588 234.628C149.827 234.983 149.974 235.324 150.027 235.651C150.079 235.942 150.115 236.271 150.134 236.637L150.166 237.241C150.231 239.881 148.581 243.069 145.216 246.806C144.006 248.227 143.075 249.029 142.424 249.21C141.772 249.391 141.319 249.488 141.062 249.501C140.147 249.549 139.089 249.311 137.887 248.787Z" fill="#323C55"/>
<path d="M295.217 231.101C294.076 231.748 293.048 232.096 292.133 232.144C291.877 232.157 291.415 232.108 290.749 231.996C290.119 231.882 289.109 231.183 287.721 229.897C283.984 226.532 282.028 223.533 281.853 220.899L281.807 220.021C281.793 219.765 281.798 219.507 281.822 219.249C281.843 218.954 281.935 218.619 282.099 218.244C282.429 217.529 283.288 216.419 284.678 214.915C286.102 213.372 287.741 211.726 289.595 209.977C291.628 208.145 292.892 206.702 293.387 205.649C293.584 205.198 293.672 204.771 293.651 204.368C293.622 203.819 293.41 203.28 293.015 202.75C292.854 202.465 292.136 201.731 290.863 200.55C289.589 199.369 288.086 197.998 286.352 196.437C284.195 194.494 282.594 193.018 281.55 192.008C280.504 190.962 279.819 190.135 279.493 189.528C279.202 188.882 279.036 188.157 278.994 187.352C278.944 186.4 279.19 185.488 279.731 184.615C280.273 183.742 281.378 182.418 283.047 180.642C285.201 178.327 286.962 176.894 288.328 176.346C288.831 176.136 289.338 176.017 289.851 175.991C290.803 175.941 291.806 176.163 292.859 176.659C293.31 176.855 293.899 177.228 294.625 177.778C295.349 178.29 296.519 179.257 298.136 180.677C299.752 182.097 302.102 184.213 305.186 187.025C308.112 189.625 310.386 191.69 312.008 193.22C313.664 194.711 314.863 195.878 315.605 196.72C316.383 197.561 316.879 198.269 317.093 198.845C317.307 199.421 317.433 200.075 317.471 200.807L317.491 201.192C317.528 201.887 317.502 202.806 317.415 203.949C317.326 205.055 317.203 206.199 317.045 207.382C316.886 208.565 316.694 209.456 316.469 210.055C316.342 210.429 316.142 210.825 315.87 211.243C315.635 211.659 315.206 212.214 314.581 212.907C313.955 213.564 313.049 214.492 311.864 215.693C310.677 216.856 309.088 218.408 307.097 220.347C306.818 220.619 306.556 220.871 306.311 221.104C304.077 223.314 302.314 225.04 301.021 226.282C299.728 227.524 298.749 228.457 298.084 229.079C297.418 229.664 296.89 230.096 296.5 230.373C296.146 230.612 295.735 230.835 295.269 231.043C295.271 231.08 295.254 231.099 295.217 231.101Z" fill="#323C55"/>
<path d="M215.202 299.637C201.929 297.654 190.603 291.663 181.225 281.664C174.018 273.336 168.106 262.039 163.49 247.772C161.207 239.708 159.856 231.669 159.436 223.655C158.623 208.147 161.313 192.754 167.506 177.474C169.831 172.144 172.058 167.787 174.187 164.401C176.312 160.942 178.924 157.531 182.021 154.17C186.021 149.57 189.964 146.015 193.85 143.505C197.737 140.995 202.392 138.965 207.817 137.416C210.824 136.589 213.811 136.098 216.779 135.942C221.009 135.72 225.199 136.17 229.35 137.292C237.8 139.528 244.618 143.969 249.802 150.617C253.933 155.609 256.718 160.485 258.158 165.246C258.97 167.956 259.605 170.862 260.066 173.963C260.596 176.985 260.904 179.313 260.99 180.945C261.021 181.539 261.013 182.097 260.966 182.621C260.519 188.299 257.724 191.756 252.581 192.993C251.55 193.196 249.959 193.354 247.807 193.466L245.469 193.589C242.131 193.764 238.788 193.865 235.441 193.891C232.164 193.84 229.925 193.697 228.722 193.462C225.559 192.735 223.271 190.251 221.859 186.009C220.887 183.084 220.04 181.12 219.318 180.116C218.595 179.112 217.678 178.639 216.565 178.698L216.008 178.727C212.372 178.918 208.671 183.538 204.905 192.59C200.881 200.985 199.162 210.785 199.749 221.989C200.34 233.267 203.027 242.65 207.809 250.137C208.867 251.867 210.257 253.543 211.979 255.164C213.775 256.781 215.315 257.779 216.6 258.158C217.584 258.479 218.558 258.614 219.523 258.563C220.784 258.497 222.03 258.134 223.26 257.474C225.354 256.249 226.641 254.544 227.122 252.362C227.18 252.061 227.202 251.762 227.186 251.465C227.151 250.798 226.896 250.178 226.419 249.608C225.638 248.905 224.26 248.159 222.284 247.37C219.933 246.526 218.21 245.574 217.112 244.516C216.086 243.379 215.447 241.85 215.198 239.929C214.945 237.933 214.767 235.971 214.666 234.042C214.561 232.038 214.478 229.736 214.416 227.135C214.272 222.976 214.255 219.815 214.365 217.651C214.471 215.414 214.721 213.801 215.116 212.813C215.507 211.751 216.13 210.863 216.985 210.148C217.829 209.211 219.169 208.509 221.004 208.04C222.836 207.498 224.939 207.164 227.313 207.04C229.684 206.841 231.425 206.713 232.538 206.655C235.952 206.476 240.185 206.328 245.238 206.212C248.655 206.108 251.367 206.04 253.375 206.009C255.456 205.974 257.055 205.965 258.172 205.981C259.289 205.997 260.113 206.102 260.644 206.298C261.245 206.415 261.775 206.573 262.231 206.773C267.706 209.015 270.766 216.295 271.412 228.612L271.493 230.171C272.038 240.558 271.268 249.304 269.185 256.407C266.406 267.267 261.636 276.333 254.875 283.607C247.394 291.365 239.069 296.489 229.899 298.978C227.623 299.544 225.334 299.887 223.034 300.008C220.437 300.144 217.826 300.02 215.202 299.637Z" fill="#323C55"/>
</svg>
