<svg width="119" height="119" viewBox="0 0 119 119" fill="none" xmlns="http://www.w3.org/2000/svg">
<path fill-rule="evenodd" clip-rule="evenodd" d="M25.9472 59.7681C26.3452 59.6797 26.7431 59.5692 27.1411 59.4365C27.539 59.2596 27.9149 59.0164 28.2686 58.7069C28.6666 58.3974 29.0424 57.9994 29.3962 57.513C29.7499 56.9824 30.0816 56.3192 30.3911 55.5232L46.9727 14.0028H47.7023L58.0821 38.8982C57.4698 39.3031 56.8788 39.7258 56.3104 40.1645C55.7911 40.5653 55.2878 40.9821 54.8025 41.4136L45.5799 19.2426L35.9625 43.3191H52.8665C52.6666 43.5375 52.4712 43.7586 52.2805 43.9824H35.6972L31.0544 55.6559C30.7448 56.4518 30.6122 57.1151 30.6564 57.6457C30.7006 58.1763 30.8554 58.5964 31.1207 58.9059C31.4302 59.2154 31.7839 59.4365 32.1819 59.5692C32.6241 59.7018 33.0442 59.7681 33.4421 59.7681V60.4314H25.9472V59.7681ZM61.159 46.2782L65.0136 55.5232C65.1305 55.7864 65.2427 56.0351 65.3499 56.2692C64.5857 56.7339 63.8264 57.148 63.088 57.5035C62.4357 57.8176 61.8225 58.0749 61.255 58.2798C61.3929 57.6573 61.2087 56.7384 60.7023 55.5232L58.1702 49.4039C59.0246 48.3402 60.0282 47.2834 61.159 46.2782Z" fill="#323C55"/>
<path d="M47.4614 81.2074C43.2512 81.2074 41.6319 80.0091 41.6319 78.8108C41.6319 77.5478 43.9637 76.0256 48.3034 76.0256C50.5381 76.0256 52.7727 76.479 57.2743 77.8068C57.4039 77.8716 57.5334 77.8716 57.6954 77.9364C62.197 75.4751 67.4112 70.4228 75.6048 60.4803C79.3292 55.9787 82.5031 51.898 87.2962 47.4287C88.6564 46.1333 90.2757 44.8379 92.0569 43.6396C89.045 38.976 83.5718 36.9681 76.8679 36.9681C64.0106 36.9681 52.1574 48.9185 52.1574 56.4968C52.1574 59.6059 54.392 61.6786 58.3107 61.6786C64.9822 61.6786 78.4872 51.7685 79.0701 43.0242C79.1349 42.4413 79.2321 42.2794 79.4264 42.2794C79.6207 42.2794 79.815 42.4089 79.815 42.9595C79.815 52.2867 69.322 62.5854 58.2135 62.5854C54.2301 62.5854 50.279 59.8326 50.279 55.752C50.279 46.1009 62.0675 36.1908 76.6736 36.1908C84.1548 36.1908 89.8547 38.6197 93.2552 42.8623C97.4978 40.2067 102.42 38.134 106.501 37.9396C106.793 37.9396 106.987 38.0692 106.987 38.2635C106.987 38.5226 106.89 38.5874 105.918 38.7493C102.032 39.2351 98.0807 41.2754 94.3564 44.4816C95.9109 47.0725 96.7529 50.2139 96.7529 53.8088C96.7529 69.678 83.3127 81.0778 68.9981 81.0778C65.7595 81.0778 63.1038 80.592 59.0556 79.4261C55.6227 80.592 51.8011 81.2074 47.4614 81.2074ZM69.16 80.1063C81.8553 80.1063 94.6802 69.095 94.6802 53.9383C94.6802 50.635 94.1297 47.8498 93.0933 45.5827C90.5996 47.9145 88.203 50.7645 85.9684 54.0031C78.4872 64.7877 71.5242 74.5359 60.5777 78.8432C62.8124 79.5233 65.3709 80.1063 69.16 80.1063ZM48.0119 80.171C50.9267 80.171 53.5176 79.8472 56.238 78.6489C53.388 77.904 50.8619 77.4182 48.0767 77.4182C44.3847 77.4182 42.5387 78.0983 42.5387 78.8108C42.5387 79.75 44.2228 80.171 48.0119 80.171Z" fill="#526680"/>
<circle cx="59.4957" cy="59.358" r="58.6724" stroke="#323C55" stroke-width="0.589673"/>
<circle cx="59.4957" cy="59.358" r="58.6724" stroke="#323C55" stroke-width="0.589673"/>
<path d="M27.6324 102.646C26.8817 102.324 26.2838 102.006 25.8385 101.691C25.3977 101.366 25.0627 101.068 24.8334 100.797C24.5565 100.493 24.3667 100.202 24.264 99.923L25.1834 97.7805L25.3242 97.8409C25.2987 98.1016 25.2747 98.4308 25.2522 98.8285C25.2401 99.2307 25.298 99.6568 25.4259 100.107C25.5583 100.546 25.7971 100.982 26.1425 101.414C26.4924 101.836 27.0114 102.195 27.6995 102.49C28.1478 102.682 28.5976 102.813 29.0489 102.884C29.5002 102.954 29.9174 102.96 30.3002 102.902C30.6935 102.849 31.0347 102.73 31.3238 102.545C31.6278 102.355 31.8491 102.098 31.9878 101.775C32.1489 101.399 32.1833 101.031 32.0911 100.671C32.0094 100.315 31.8486 99.9556 31.609 99.5935C31.3797 99.2359 31.0872 98.882 30.7313 98.5317C30.3904 98.1755 30.0315 97.8178 29.6548 97.4587C29.293 97.0935 28.9364 96.7306 28.585 96.3699C28.2485 96.0033 27.9627 95.6337 27.7275 95.2612C27.5072 94.8827 27.3577 94.4976 27.2789 94.1058C27.215 93.708 27.2704 93.3058 27.4448 92.8992C27.6417 92.4405 27.9041 92.0593 28.2319 91.7555C28.5643 91.4414 28.945 91.2159 29.3741 91.079C29.8136 90.9467 30.294 90.9059 30.8154 90.9568C31.3412 90.9973 31.8908 91.1406 32.4642 91.3866C32.8291 91.5432 33.1583 91.74 33.4516 91.977C33.7494 92.2036 34.0122 92.4398 34.24 92.6857C34.4827 92.9257 34.6897 93.1626 34.8609 93.3966C35.0366 93.6201 35.1773 93.8101 35.2829 93.9666L34.5045 95.7806L34.3637 95.7202C34.3772 95.6025 34.381 95.3635 34.3752 95.003C34.3695 94.6425 34.3056 94.2447 34.1836 93.8096C34.0766 93.3687 33.8839 92.9403 33.6055 92.5245C33.3316 92.0984 32.9288 91.7712 32.3971 91.543C31.9384 91.3462 31.4968 91.2245 31.0723 91.1782C30.6626 91.1258 30.2775 91.1457 29.917 91.2379C29.5713 91.3242 29.2651 91.4767 28.9984 91.6956C28.7465 91.9085 28.5468 92.1869 28.3991 92.531C28.2381 92.9063 28.1984 93.272 28.2802 93.6281C28.3724 93.9886 28.5331 94.3477 28.7623 94.7053C29.002 95.0674 29.2923 95.4266 29.6333 95.7828C29.9891 96.133 30.348 96.4907 30.7098 96.8558C31.0865 97.215 31.4431 97.5779 31.7796 97.9446C32.131 98.3052 32.4168 98.6748 32.6371 99.0533C32.8723 99.4258 33.0218 99.8109 33.0857 100.209C33.1645 100.601 33.1166 101 32.9421 101.406C32.7587 101.834 32.5001 102.192 32.1662 102.481C31.8428 102.774 31.4562 102.985 31.0062 103.113C30.5608 103.23 30.0513 103.252 29.4778 103.179C28.9147 103.11 28.2996 102.933 27.6324 102.646Z" fill="#323C55"/>
<path d="M38.7861 94.0916L47.279 96.1844L46.9405 98.6248L46.7753 98.5841C46.7933 98.2263 46.7702 97.8935 46.7059 97.5855C46.6416 97.2776 46.5113 97.0001 46.3151 96.7531C46.1299 96.5088 45.8568 96.2896 45.4957 96.0955C45.1483 95.893 44.6882 95.7212 44.1154 95.5801L43.4875 95.4254L42.9419 97.6395L40.9547 105.633C40.9058 105.831 40.883 105.995 40.8862 106.124C40.9004 106.256 40.931 106.369 40.9781 106.462C41.0279 106.544 41.0915 106.619 41.1687 106.684C41.2597 106.742 41.3521 106.794 41.4458 106.84L41.4051 107.005L38.9266 106.395L38.9673 106.23C39.0719 106.232 39.1723 106.227 39.2686 106.216C39.3786 106.196 39.4747 106.162 39.5571 106.112C39.6422 106.051 39.7162 105.964 39.7791 105.851C39.853 105.741 39.9144 105.587 39.9633 105.388L41.9505 97.3952L42.4961 95.1811L41.8848 95.0304C41.312 94.8893 40.8192 94.8263 40.4065 94.8414C40.0076 94.8483 39.6639 94.9155 39.3754 95.043C39.0869 95.1705 38.8426 95.3557 38.6426 95.5985C38.4425 95.8413 38.2674 96.1253 38.1172 96.4505L37.9519 96.4098L38.7861 94.0916Z" fill="#323C55"/>
<path d="M49.5612 96.78L49.5736 96.6102L52.1195 96.7951L52.1072 96.9648C51.8889 96.9945 51.7013 97.0719 51.5443 97.197C51.3882 97.3107 51.2957 97.5657 51.267 97.9617L50.7728 104.768C50.6783 106.069 50.8909 107.057 51.4107 107.732C51.9304 108.406 52.79 108.787 53.9894 108.874C54.3854 108.903 54.8034 108.865 55.2432 108.761C55.6952 108.646 56.1133 108.449 56.4976 108.169C56.8827 107.879 57.206 107.498 57.4677 107.028C57.7406 106.559 57.9021 105.979 57.9523 105.289L58.4464 98.483C58.4752 98.087 58.4206 97.8214 58.2825 97.6862C58.1453 97.5398 57.9708 97.4361 57.7591 97.3752L57.7714 97.2055L59.4687 97.3287L59.4564 97.4985C59.2381 97.5281 59.0505 97.6055 58.8935 97.7306C58.7374 97.8444 58.6449 98.0993 58.6162 98.4953L58.122 105.301C58.076 105.935 57.9331 106.493 57.6932 106.976C57.4647 107.46 57.1571 107.859 56.7704 108.172C56.395 108.486 55.957 108.722 55.4565 108.879C54.9568 109.024 54.4184 109.076 53.8413 109.034C53.2642 108.992 52.7151 108.879 52.194 108.693C51.685 108.497 51.2388 108.22 50.8552 107.862C50.4838 107.494 50.1922 107.046 49.9802 106.519C49.7796 105.992 49.7043 105.384 49.7544 104.694L50.2486 97.8877C50.2774 97.4917 50.2227 97.2261 50.0847 97.091C49.9474 96.9445 49.773 96.8408 49.5612 96.78Z" fill="#323C55"/>
<path d="M61.6763 97.2797L65.8069 96.8568C66.5857 96.7771 67.323 96.8499 68.0189 97.0752C68.7148 97.3004 69.3263 97.6484 69.8535 98.119C70.3919 98.5885 70.8336 99.1705 71.1784 99.8651C71.5333 100.547 71.7541 101.312 71.8407 102.158C71.9274 103.004 71.8785 103.808 71.694 104.568C71.5196 105.316 71.2232 105.985 70.8046 106.575C70.3861 107.165 69.8538 107.647 69.2079 108.021C68.5732 108.394 67.8439 108.623 67.02 108.707L62.8894 109.13L62.872 108.961C62.9713 108.928 63.0643 108.89 63.1512 108.847C63.2481 108.791 63.327 108.726 63.3878 108.651C63.4474 108.565 63.4878 108.459 63.5089 108.331C63.5414 108.202 63.5472 108.036 63.5264 107.833L62.5628 98.4206C62.5224 98.0256 62.4225 97.7735 62.2631 97.6644C62.1025 97.544 61.9127 97.4722 61.6936 97.449L61.6763 97.2797ZM66.8503 108.553C67.4824 108.489 68.0587 108.27 68.5794 107.897C69.0989 107.514 69.5403 107.035 69.9035 106.462C70.2657 105.877 70.5294 105.223 70.6948 104.499C70.8602 103.775 70.9036 103.029 70.825 102.262C70.7464 101.494 70.5534 100.779 70.2459 100.115C69.9385 99.4503 69.5494 98.88 69.0786 98.4036C68.6079 97.9272 68.0804 97.565 67.4962 97.3168C66.912 97.0687 66.3039 96.977 65.6719 97.0417L63.4711 97.267L64.6496 108.779L66.8503 108.553Z" fill="#323C55"/>
<path d="M76.8503 106.99C76.9443 106.944 77.0314 106.894 77.1117 106.84C77.2003 106.772 77.2698 106.697 77.32 106.614C77.3676 106.521 77.3933 106.41 77.3972 106.281C77.4121 106.149 77.3957 105.984 77.3479 105.785L75.1334 96.5862C75.0405 96.2001 74.9077 95.9637 74.7351 95.8769C74.5598 95.779 74.3621 95.7333 74.1419 95.7396L74.1021 95.5742L76.5838 94.9767L76.6236 95.1422C76.4247 95.2368 76.2695 95.3675 76.1579 95.5344C76.0438 95.6902 76.0331 95.9611 76.1261 96.3472L78.3406 105.546C78.3884 105.745 78.4434 105.901 78.5057 106.014C78.5791 106.125 78.6581 106.211 78.7429 106.272C78.825 106.322 78.9155 106.359 79.0143 106.382C79.1216 106.391 79.2275 106.394 79.332 106.393L79.3719 106.558L76.8902 107.156L76.8503 106.99Z" fill="#323C55"/>
<path d="M84.8078 92.2653C84.2187 92.5033 83.7132 92.842 83.2913 93.2817C82.8651 93.7108 82.5561 94.2332 82.3644 94.849C82.1684 95.4543 82.1001 96.1487 82.1597 96.9322C82.215 97.7052 82.4317 98.5598 82.8099 99.496C83.1838 100.422 83.6214 101.187 84.1227 101.792C84.6241 102.397 85.1576 102.855 85.7232 103.164C86.2846 103.464 86.8698 103.625 87.4787 103.648C88.0834 103.661 88.6803 103.548 89.2693 103.31C89.8584 103.073 90.366 102.739 90.7923 102.31C91.2142 101.87 91.5232 101.348 91.7192 100.743C91.9109 100.127 91.977 99.427 91.9175 98.6435C91.8579 97.8601 91.6412 97.0055 91.2673 96.0798C90.8891 95.1436 90.4515 94.3782 89.9544 93.7837C89.4531 93.1786 88.9217 92.7264 88.3603 92.4271C87.7946 92.1172 87.2095 91.9559 86.6048 91.9432C85.9959 91.92 85.3969 92.0274 84.8078 92.2653ZM84.7441 92.1075C85.5751 91.7719 86.3772 91.6069 87.1504 91.6127C87.9193 91.608 88.6351 91.7594 89.2976 92.0668C89.9559 92.3638 90.5484 92.8157 91.075 93.4228C91.6079 94.0151 92.0507 94.7478 92.4034 95.6209C92.7518 96.4834 92.9421 97.3181 92.9743 98.1249C93.0171 98.9274 92.9069 99.6693 92.6437 100.351C92.3764 101.022 91.9665 101.628 91.4143 102.169C90.8578 102.699 90.1641 103.133 89.3331 103.468C88.502 103.804 87.7021 103.974 86.9331 103.979C86.16 103.973 85.4442 103.822 84.7859 103.525C84.1234 103.217 83.5235 102.762 82.9864 102.159C82.4597 101.552 82.0222 100.817 81.6738 99.9549C81.3211 99.0818 81.1255 98.2493 81.087 97.4573C81.0548 96.6505 81.1724 95.9117 81.4398 95.2409C81.7029 94.5595 82.1127 93.9535 82.6692 93.4228C83.2214 92.8816 83.9131 92.4432 84.7441 92.1075Z" fill="#323C55"/>
</svg>
