<svg width="422" height="431" viewBox="0 0 422 431" fill="none" xmlns="http://www.w3.org/2000/svg">
<path d="M159.343 50.1244C187.449 31.2758 223.635 29.3795 253.557 45.1869L272.139 55.0023C277.739 57.9609 283.593 60.4119 289.632 62.3253L309.664 68.6733C341.925 78.8959 365.968 106.004 372.266 139.254L376.176 159.901C377.355 166.125 379.09 172.231 381.359 178.144L388.885 197.764C401.007 229.36 394.804 265.06 372.735 290.715L359.03 306.645C354.899 311.447 351.208 316.61 347.999 322.071L337.353 340.188C320.208 369.365 288.429 386.774 254.61 385.515L233.611 384.733C227.281 384.498 220.943 384.83 214.672 385.726L193.87 388.698C160.368 393.485 126.944 379.494 106.843 352.269L94.3618 335.363C90.5995 330.268 86.3879 325.519 81.7778 321.175L66.4831 306.765C41.8529 283.557 31.9522 248.701 40.7049 216.011L46.1403 195.712C47.7785 189.594 48.8648 183.34 49.3865 177.028L51.1171 156.085C53.9048 122.359 74.9841 92.8856 105.999 79.3469L125.258 70.9398C131.063 68.4057 136.63 65.3562 141.89 61.8283L159.343 50.1244Z" fill="#F3F8FB" stroke="#07004D" stroke-width="14"/>
<path d="M137.886 220.048C137.85 220.05 137.83 220.033 137.828 219.996C137.38 219.836 136.948 219.657 136.534 219.458C136.154 219.221 135.602 218.847 134.878 218.334C134.152 217.785 133.081 216.96 131.665 215.859C130.286 214.757 128.353 213.243 125.866 211.318C125.596 211.075 125.308 210.833 125.002 210.592C122.819 208.871 121.059 207.495 119.72 206.464C118.416 205.395 117.418 204.566 116.726 203.978C116.07 203.352 115.584 202.845 115.27 202.458C114.956 202.07 114.716 201.697 114.551 201.339C114.264 200.767 113.98 199.901 113.699 198.741C113.418 197.581 113.176 196.474 112.974 195.42C112.807 194.328 112.705 193.434 112.668 192.738L112.643 192.244C112.604 191.512 112.661 190.848 112.813 190.253C112.966 189.657 113.367 188.902 114.016 187.987C114.666 187.072 115.718 185.787 117.173 184.133C118.663 182.439 120.708 180.148 123.31 177.259C126.12 174.138 128.254 171.787 129.713 170.206C131.172 168.624 132.235 167.541 132.901 166.955C133.566 166.333 134.112 165.9 134.54 165.658C135.573 165.053 136.565 164.726 137.517 164.676C138.03 164.649 138.547 164.714 139.069 164.87C140.448 165.275 142.331 166.516 144.715 168.593C146.597 170.183 147.835 171.385 148.428 172.198C149.058 173.009 149.398 173.891 149.448 174.843C149.49 175.648 149.4 176.387 149.178 177.059C148.955 177.695 148.378 178.588 147.447 179.738C146.514 180.851 145.058 182.488 143.079 184.647C141.518 186.381 140.166 187.901 139.023 189.209C137.917 190.515 137.28 191.32 137.112 191.622C136.775 192.19 136.621 192.749 136.65 193.298C136.671 193.701 136.803 194.116 137.045 194.544C137.648 195.54 139.056 196.843 141.27 198.452C143.296 199.998 145.08 201.464 146.621 202.852C148.197 204.201 149.186 205.214 149.588 205.89C149.827 206.245 149.973 206.586 150.027 206.913C150.079 207.204 150.115 207.533 150.134 207.899L150.166 208.503C150.23 211.142 148.581 214.33 145.216 218.067C144.005 219.489 143.075 220.29 142.423 220.471C141.772 220.652 141.318 220.749 141.062 220.763C140.147 220.811 139.088 220.573 137.886 220.048Z" fill="#07004D"/>
<path d="M295.217 202.363C294.076 203.01 293.048 203.357 292.133 203.405C291.877 203.419 291.415 203.37 290.749 203.258C290.119 203.144 289.109 202.444 287.72 201.159C283.983 197.794 282.027 194.795 281.853 192.161L281.807 191.282C281.793 191.026 281.798 190.769 281.821 190.511C281.843 190.216 281.935 189.881 282.099 189.505C282.429 188.79 283.288 187.681 284.678 186.176C286.102 184.633 287.741 182.988 289.595 181.239C291.628 179.407 292.892 177.964 293.387 176.91C293.584 176.459 293.672 176.033 293.65 175.63C293.622 175.081 293.41 174.541 293.015 174.011C292.853 173.726 292.136 172.993 290.862 171.812C289.589 170.63 288.086 169.259 286.352 167.698C284.195 165.756 282.594 164.279 281.55 163.27C280.504 162.223 279.818 161.396 279.493 160.79C279.202 160.144 279.036 159.419 278.993 158.613C278.943 157.661 279.189 156.749 279.731 155.877C280.272 155.004 281.378 153.68 283.047 151.904C285.201 149.588 286.961 148.156 288.328 147.607C288.83 147.397 289.338 147.279 289.851 147.252C290.802 147.202 291.805 147.425 292.859 147.92C293.31 148.117 293.898 148.49 294.625 149.039C295.349 149.552 296.519 150.518 298.135 151.939C299.751 153.359 302.102 155.475 305.185 158.287C308.112 160.886 310.385 162.951 312.007 164.482C313.664 165.973 314.863 167.14 315.605 167.982C316.383 168.822 316.879 169.53 317.093 170.107C317.306 170.683 317.432 171.337 317.471 172.069L317.491 172.453C317.527 173.149 317.502 174.068 317.415 175.21C317.326 176.316 317.203 177.461 317.044 178.644C316.886 179.827 316.694 180.718 316.469 181.317C316.341 181.691 316.142 182.086 315.87 182.504C315.635 182.921 315.205 183.475 314.581 184.169C313.955 184.826 313.049 185.754 311.864 186.954C310.677 188.118 309.088 189.669 307.097 191.609C306.818 191.88 306.555 192.133 306.311 192.366C304.077 194.575 302.314 196.301 301.021 197.544C299.728 198.786 298.749 199.718 298.084 200.34C297.417 200.926 296.889 201.357 296.5 201.635C296.145 201.874 295.735 202.097 295.269 202.305C295.271 202.342 295.253 202.361 295.217 202.363Z" fill="#07004D"/>
<path d="M215.202 270.898C201.929 268.916 190.603 262.924 181.225 252.925C174.018 244.598 168.106 233.301 163.489 219.034C161.207 210.969 159.855 202.93 159.435 194.917C158.623 179.409 161.313 164.015 167.506 148.736C169.831 143.406 172.058 139.048 174.187 135.663C176.312 132.203 178.923 128.793 182.021 125.431C186.021 120.832 189.964 117.277 193.85 114.767C197.736 112.257 202.392 110.227 207.816 108.678C210.824 107.851 213.811 107.359 216.779 107.204C221.008 106.982 225.199 107.432 229.35 108.554C237.8 110.789 244.617 115.231 249.802 121.879C253.932 126.871 256.718 131.747 258.158 136.508C258.969 139.218 259.605 142.124 260.065 145.224C260.596 148.247 260.904 150.575 260.989 152.207C261.02 152.801 261.012 153.359 260.965 153.882C260.519 159.56 257.724 163.018 252.581 164.255C251.55 164.457 249.958 164.615 247.807 164.728L245.469 164.85C242.13 165.025 238.787 165.126 235.441 165.153C232.164 165.101 229.925 164.958 228.722 164.724C225.559 163.997 223.271 161.512 221.858 157.271C220.887 154.346 220.04 152.381 219.317 151.378C218.595 150.374 217.677 149.901 216.565 149.959L216.008 149.989C212.372 150.179 208.671 154.8 204.904 163.851C200.88 172.247 199.162 182.046 199.749 193.25C200.34 204.529 203.027 213.911 207.809 221.399C208.867 223.129 210.257 224.805 211.978 226.426C213.774 228.043 215.315 229.041 216.599 229.42C217.584 229.74 218.558 229.875 219.522 229.825C220.784 229.759 222.03 229.396 223.26 228.736C225.353 227.51 226.641 225.806 227.121 223.623C227.18 223.322 227.202 223.024 227.186 222.727C227.151 222.059 226.895 221.44 226.419 220.87C225.638 220.167 224.26 219.421 222.284 218.631C219.933 217.787 218.209 216.836 217.112 215.777C216.085 214.641 215.447 213.112 215.198 211.19C214.944 209.195 214.767 207.232 214.666 205.303C214.561 203.3 214.478 200.998 214.416 198.397C214.272 194.238 214.255 191.076 214.365 188.913C214.471 186.675 214.721 185.063 215.116 184.075C215.507 183.013 216.13 182.124 216.985 181.41C217.829 180.473 219.168 179.77 221.004 179.302C222.836 178.76 224.939 178.426 227.313 178.302C229.684 178.103 231.425 177.975 232.538 177.916C235.951 177.737 240.185 177.59 245.238 177.474C248.655 177.369 251.367 177.301 253.374 177.271C255.456 177.236 257.055 177.227 258.172 177.242C259.289 177.258 260.113 177.364 260.644 177.559C261.245 177.677 261.774 177.835 262.231 178.034C267.706 180.277 270.766 187.557 271.411 199.874L271.493 201.432C272.037 211.82 271.268 220.565 269.185 227.669C266.406 238.528 261.636 247.595 254.874 254.869C247.394 262.627 239.069 267.75 229.899 270.24C227.622 270.806 225.334 271.149 223.034 271.269C220.437 271.405 217.826 271.282 215.202 270.898Z" fill="#07004D"/>
<path d="M149.047 330.85L147.501 301.347L137.024 301.896L136.884 299.231L160.78 297.979L160.92 300.644L150.442 301.193L151.989 330.696L149.047 330.85ZM180.85 329.183L179.164 297.015L197.683 296.045L197.823 298.71L182.244 299.526L182.851 311.107L197.327 310.348L197.467 313.014L182.991 313.772L183.651 326.364L199.229 325.547L199.369 328.213L180.85 329.183ZM234.726 326.913C231.693 327.071 228.96 326.508 226.528 325.223C224.124 323.905 222.183 322.04 220.705 319.629C219.256 317.186 218.446 314.341 218.276 311.094C218.106 307.846 218.614 304.947 219.802 302.397C220.987 299.815 222.707 297.759 224.962 296.228C227.215 294.666 229.842 293.806 232.845 293.649C234.652 293.554 236.432 293.799 238.183 294.383C239.963 294.935 241.588 295.771 243.06 296.892C244.531 297.982 245.689 299.273 246.535 300.765L244.179 302.409C243.466 301.126 242.503 300.024 241.287 299.105C240.1 298.153 238.788 297.439 237.35 296.961C235.91 296.453 234.455 296.237 232.984 296.314C230.564 296.441 228.436 297.152 226.599 298.446C224.793 299.739 223.409 301.47 222.447 303.64C221.484 305.78 221.074 308.213 221.217 310.939C221.362 313.697 222.025 316.104 223.208 318.162C224.391 320.22 225.964 321.796 227.926 322.891C229.919 323.985 232.141 324.468 234.591 324.339C236.093 324.26 237.532 323.878 238.909 323.191C240.284 322.474 241.51 321.534 242.586 320.372C243.692 319.208 244.53 317.905 245.1 316.462L247.615 317.85C246.903 319.516 245.877 321.029 244.535 322.39C243.222 323.718 241.711 324.78 240.002 325.576C238.292 326.372 236.534 326.818 234.726 326.913ZM290.199 323.452L288.513 291.284L291.454 291.13L293.14 323.298L290.199 323.452ZM267.773 324.628L266.087 292.46L269.028 292.306L270.714 324.474L267.773 324.628ZM269.914 309.217L269.775 306.551L289.259 305.53L289.399 308.196L269.914 309.217Z" fill="#2D82B7"/>
</svg>
